<svg xmlns="http://www.w3.org/2000/svg" viewBox="0 0 329.9 68.99"><defs><style>.cls-1{fill:#f5cbf7;}.cls-2,.cls-3{fill:#6b9493;}.cls-2{opacity:0.6;}.cls-4{fill:#254c58;}</style></defs><g id="Layer_2" data-name="Layer 2"><g id="Layer_1-2" data-name="Layer 1"><circle class="cls-1" cx="30.48" cy="30.48" r="30.48"/><circle class="cls-2" cx="47.45" cy="55.28" r="13.71"/><path class="cls-3" d="M103.28,43.84H80.78V10.15h8.57V36.93h13.93Z"/><path class="cls-3" d="M105.05,31.11c0-8.31,5.11-13.3,13-13.3s13,5,13,13.3c0,8.5-5,13.34-13,13.34S105.05,39.59,105.05,31.11Zm17.63,0c0-4.58-1.8-7.26-4.63-7.26s-4.6,2.68-4.6,7.26,1.76,7.24,4.6,7.24S122.68,35.78,122.68,31.14Z"/><path class="cls-3" d="M150.1,28.45c-.28-2.63-1.87-4.34-4.27-4.34-2.92,0-4.62,2.52-4.62,7s1.7,7.06,4.62,7.06c2.43,0,4-1.57,4.29-4.21h7.59c-.21,6.47-4.81,10.49-12,10.49-8,0-12.92-5-12.92-13.34s5-13.3,12.87-13.3c7.17,0,11.81,4.27,12,10.64Z"/><path class="cls-3" d="M159.13,36.48c0-4.76,3.66-7.42,10.25-7.82l6-.35V26.87c0-2-1.45-3.16-3.62-3.16s-3.66,1.17-3.9,2.74h-7.44c.23-5.21,4.66-8.64,11.76-8.64,6.79,0,11.3,3.48,11.3,8.59V43.84h-8.05V40.22h-.17c-1.37,2.57-4.48,4-7.54,4C163,44.21,159.13,41.08,159.13,36.48Zm16.2-1.77V33l-4.62.3c-2.17.17-3.39,1.17-3.39,2.66s1.33,2.6,3.29,2.6C173.14,38.52,175.33,37,175.33,34.71Z"/><path class="cls-3" d="M186.86,10.15h8.28V43.84h-8.28Z"/><path class="cls-4" d="M221.65,43.84h-22.5V10.15h8.56V36.93h13.94Z"/><path class="cls-4" d="M248.47,35.81c-.8,5.25-5.47,8.64-12.12,8.64-8.1,0-12.93-5-12.93-13.2s4.88-13.44,12.65-13.44,12.54,5,12.54,12.79v2.34H231.45v.51a4.84,4.84,0,0,0,5,5.14c2.22,0,3.94-1.05,4.53-2.78Zm-16.9-7.59h9.24a4.47,4.47,0,0,0-4.6-4.53A4.64,4.64,0,0,0,231.57,28.22Z"/><path class="cls-4" d="M275.43,35.81c-.8,5.25-5.47,8.64-12.12,8.64-8.1,0-12.94-5-12.94-13.2S255.25,17.81,263,17.81s12.54,5,12.54,12.79v2.34H258.41v.51a4.84,4.84,0,0,0,5,5.14c2.21,0,3.94-1.05,4.52-2.78Zm-16.91-7.59h9.25a4.48,4.48,0,0,0-4.6-4.53A4.65,4.65,0,0,0,258.52,28.22Z"/><path class="cls-4" d="M277.33,31.07c0-8.13,3.88-13,10.23-13a7.87,7.87,0,0,1,7.61,4.86h.16V10.15h8.27V43.84h-8.22V39.47h-.17c-1,2.71-4,4.74-7.75,4.74C281.14,44.21,277.33,39.29,277.33,31.07Zm8.48.07c0,4.11,1.77,6.6,4.76,6.6s4.79-2.47,4.79-6.6-1.83-6.63-4.79-6.63S285.81,27.05,285.81,31.14Z"/><path class="cls-4" d="M317.9,17.81c6.93,0,11.25,3.29,11.3,8.54h-7.56c-.07-1.82-1.52-3-3.81-3-2,0-3.34.88-3.34,2.19,0,1,.94,1.73,2.85,2.13l5.32,1.07c5.07,1.07,7.24,3.15,7.24,7,0,5.28-4.79,8.67-11.88,8.67-7.43,0-11.72-3.39-12.07-8.6h8c.23,1.89,1.75,3,4.18,3,2.19,0,3.55-.8,3.55-2.15,0-1-.77-1.61-2.76-2l-4.81-1c-5-1-7.59-3.66-7.59-7.56C306.55,21,310.9,17.81,317.9,17.81Z"/></g></g></svg>