<svg id="Layer_1" data-name="Layer 1" xmlns="http://www.w3.org/2000/svg" width="675.36" height="302.92" viewBox="0 0 675.36 302.92">
  <defs>
    <style>
      .clsb-1 {
        fill: #50bfa5;
      }

      .clsb-2 {
        fill: #c7d8d1;
      }
    </style>
  </defs>
  <path class="clsb-1" d="M60.51,4267.26l9.79-20.95a36.12,36.12,0,0,1,23-19.69,59.55,59.55,0,0,0,38-32.18l6.91-14.79c4.88-10.44,4.11-22.65-2.32-31.57a35.64,35.64,0,0,1-2.86-35.85l13.11-28.06c17.94-38.37,3.2-83.17-32.94-100.06-14.34-6.7-31.73.22-38.85,15.44l-9.21,20.72c-7.8,16.69-18.41,24.19-28.47,27.11a83.75,83.75,0,0,0-36.58,22v215.06h47a48.52,48.52,0,0,0,13.45-17.22" transform="translate(-0.04 -3981.55)"/>
  <path class="clsb-2" d="M358.64,4284.48c15.41-27.68,75.55-140.31,33.56-140.31-47.87,0-87.35,39.1-87.35,39.1s35-70.6,0-80c-38.23-10.27-142.42,103.64-142.42,103.64s55.35-75.5-3.38-56.49c-49.17,15.91-122.59,105.38-145.19,134.08Z" transform="translate(-0.04 -3981.55)"/>
  <path class="clsb-1" d="M661.41,4284.48c9.07-4.82,16.69-13.37,13.07-28.53-9.27-38.82-127.66-1.86-127.66-1.86s72.62-78.62,17.06-78.62-89.91,58.26-93.81,62.16,41.62-81.93-22.41-97.91c-70-17.49-128.1,114.51-140.4,144.76Z" transform="translate(-0.04 -3981.55)"/>
</svg>
