<svg id="Layer_1" data-name="Layer 1" xmlns="http://www.w3.org/2000/svg" xmlns:xlink="http://www.w3.org/1999/xlink" width="517" height="420.65" viewBox="0 0 517 420.65">
  <defs>
    <style>
      .cls-1, .cls-7, .cls-8, .cls-9 {
        fill: none;
      }

      .cls-2 {
        fill: #f5cbf7;
      }

      .cls-3 {
        fill: #d78752;
      }

      .cls-4 {
        fill: #f9e07d;
      }

      .cls-5 {
        clip-path: url(#clip-path);
      }

      .cls-6 {
        fill: #254c58;
      }

      .cls-7, .cls-8, .cls-9 {
        stroke: #000;
        stroke-linecap: round;
        stroke-linejoin: round;
      }

      .cls-7 {
        stroke-width: 0.91px;
      }

      .cls-8 {
        stroke-width: 1.17px;
      }

      .cls-9 {
        stroke-width: 1.17px;
      }
    </style>
    <clipPath id="clip-path" transform="translate(-814 -569)">
      <path class="cls-1" d="M1034.52,874.8a104.9,104.9,0,1,0,104.9-104.89,104.91,104.91,0,0,0-104.9,104.89"/>
    </clipPath>
  </defs>
  <circle class="cls-2" cx="25.5" cy="300.5" r="25.5"/>
  <circle class="cls-3" cx="470" cy="47" r="47"/>
  <path class="cls-4" d="M1244.31,874.8a104.9,104.9,0,1,1-104.89-104.89A104.9,104.9,0,0,1,1244.31,874.8" transform="translate(-814 -569)"/>
  <g class="cls-5">
    <polygon class="cls-2" points="379.9 377.41 390.31 399.26 312.47 420.65 293.31 413.26 302.31 353.26 379.9 377.41"/>
  </g>
  <polygon class="cls-3" points="247.32 275.16 244.57 288.43 262.09 287.13 262.09 280.55 247.32 275.16"/>
  <path class="cls-3" d="M1093.31,886.26l-15.84-31.82-25.48,10s1.48,69,29.63,73c26,3.7,40.38-21,40.38-21Z" transform="translate(-814 -569)"/>
  <path d="M1174.22,860.63s10.61,4.3,16.64-2.32c5.88-6.45,2.72-14.29,2.72-14.29a14.59,14.59,0,0,0,7.09-10.34,20.29,20.29,0,0,0-3-13s3.18-9.57-1.53-15.21c-4.53-5.44-8.55-5.36-8.55-5.36s1.43-7.13-6.22-11.85c-5.19-3.2-11.05-.67-11.05-.67s-2.14-7.61-14.72-8.92c-11.46-1.19-14.34,4.84-14.34,4.84s-8.65-4.08-14.31,0a11.55,11.55,0,0,0-4.86,10.27s-5.85,2.7-6.86,8.87,0,9.16,0,9.16-4,5.76-3.78,11.74,2.77,8.91,2.77,8.91-4,6.1-2.77,11.19,3.78,6.37,3.78,6.37a15.8,15.8,0,0,0,9.73,13.22c7,2.92,49.25-2.64,49.25-2.64" transform="translate(-814 -569)"/>
  <path class="cls-2" d="M1216.56,908.3s-5.21-52.33-31.17-58.75-44-1-58.52,5.2c-14,6-33.53,28.52-33.53,28.52l11.2,49.81,14.42-2.71-.24,19,76.46,2,9.71-39.89Z" transform="translate(-814 -569)"/>
  <path class="cls-3" d="M1163.41,834.41l.64,16.57s-2.81,4.88-12.48,6c-7.2.87-9.8-.67-9.8-.67l.69-8.43.68-8.23,17.36-4.52Z" transform="translate(-814 -569)"/>
  <path d="M1160.5,835.17a5.87,5.87,0,0,1-.42,1.62c-3.39,8.42-13.47,10.59-17.62,11.13l.68-8.23Z" transform="translate(-814 -569)"/>
  <path class="cls-3" d="M1138,802.05s-7.9,21.12-4,32.53,14.33,9,20.53,6.44a20.91,20.91,0,0,0,8.92-6.61,8.94,8.94,0,0,0,9.67-4c3.65-5.7.88-11.87-2.57-13.13s-7.32,1.38-7.32,1.38l2.81-6.16s-14.85-29.76-28-10.43" transform="translate(-814 -569)"/>
  <path class="cls-3" d="M1126.47,932.75a181.46,181.46,0,0,0-18.32,3.84c-6.9,2-17.6,4.42-22.12,3.23s-5,.71-3.8,3.35,6.42,4,6.42,4-5.47,21.91-3.33,23.7,8.32-5.12,8.32-5.12a5.18,5.18,0,0,0,2.86,1.79,9.25,9.25,0,0,0,4-.77,4.26,4.26,0,0,0,3.53,2.56,6.33,6.33,0,0,0,4.8-1s1.66,3.67,3.56,2.86,10.47-3.37,10-5.94-7.61-2-7.61-2l-1-4.36s7.37,5.64,14.27,1.79,6.17-13.45,6.17-13.45Z" transform="translate(-814 -569)"/>
  <path d="M1093.64,966.41a.62.62,0,0,1-.48-.22c-5.61-6.75,1.12-18.94,1.41-19.46a.62.62,0,1,1,1.09.61c-.06.12-6.6,12-1.54,18a.62.62,0,0,1-.08.88.65.65,0,0,1-.4.14" transform="translate(-814 -569)"/>
  <path class="cls-3" d="M1210.72,909.93s5.25,22.82-.65,34.74c-8.41,17-78.84,8-78.84,8l-4.76-19.87,39.66-12.28-.13-.8s15.63-4.12,44.72-9.74" transform="translate(-814 -569)"/>
  <path d="M1100.54,967.43a.65.65,0,0,1-.49-.23c-3.5-4.39-1-10.75-.93-11a.63.63,0,0,1,.81-.35.64.64,0,0,1,.36.81c0,.06-2.31,6,.74,9.78a.62.62,0,0,1-.49,1" transform="translate(-814 -569)"/>
  <path d="M1108.87,969a.61.61,0,0,1-.4-.14c-3.78-3-3.29-9.23-3.27-9.49a.61.61,0,0,1,.67-.57.62.62,0,0,1,.57.68c0,.06-.44,5.8,2.82,8.41a.63.63,0,0,1-.39,1.11" transform="translate(-814 -569)"/>
  <path class="cls-6" d="M1146.49,858a17.45,17.45,0,0,1-6.6-1,.62.62,0,0,1-.31-.82.63.63,0,0,1,.82-.32s4.66,2,13.78,0,11.4-7.62,11.42-7.68a.62.62,0,0,1,.81-.34.61.61,0,0,1,.35.8c-.1.26-2.62,6.34-12.31,8.44a37.58,37.58,0,0,1-8,.92" transform="translate(-814 -569)"/>
  <path class="cls-6" d="M1119.32,933.37a.63.63,0,0,1-.63-.62v-17.5a90.09,90.09,0,0,1-3.5-18.63c-1-11.12,6.85-23.72,7.18-24.26a.62.62,0,0,1,.86-.19.63.63,0,0,1,.2.86c-.08.12-7.92,12.78-7,23.48a87.25,87.25,0,0,0,3.48,18.44.69.69,0,0,1,0,.2v17.6a.62.62,0,0,1-.62.62" transform="translate(-814 -569)"/>
  <path class="cls-6" d="M1166,920.29a.61.61,0,0,1-.58-.41c-.48-1.32-4.54-13-1.44-15.79a1.2,1.2,0,0,1,1.42-.32c2.06,1,1.54,11.48,1.23,15.94a.63.63,0,0,1-.54.58H1166m-1.1-15.36c-1.57,1.44-.63,6.83.67,11.34.22-5.41,0-10.57-.67-11.34" transform="translate(-814 -569)"/>
  <path d="M1135.07,800.2s5,7.2,9.2,9.1,13.71,1.53,13.71,1.53-2.27,3.33,0,5.49a9,9,0,0,0,5.21,2.32l7.25-6.93-11.19-16.19-19.1-2.81-5.83,11.37v9s-6-12.68.75-12.93" transform="translate(-814 -569)"/>
  <path d="M1137.83,814.88a1,1,0,1,1-1-1,1,1,0,0,1,1,1" transform="translate(-814 -569)"/>
  <path d="M1147.74,815.4a1,1,0,1,1-1-1,1,1,0,0,1,1,1" transform="translate(-814 -569)"/>
  <path class="cls-7" d="M1141.28,822.1s-3.22-.17-3.06,1.53,2.55,2.74,2.55,2.74" transform="translate(-814 -569)"/>
  <path class="cls-7" d="M1140.31,833.23s1.6,3.09,5,.95" transform="translate(-814 -569)"/>
  <path class="cls-7" d="M1165.47,827.28s-.22-5.45,2.78-5.19" transform="translate(-814 -569)"/>
  <path class="cls-8" d="M1134.77,811.44a4.85,4.85,0,0,1,5,.12" transform="translate(-814 -569)"/>
  <path class="cls-9" d="M1151.15,813.4a4.85,4.85,0,0,0-4.81-1.25" transform="translate(-814 -569)"/>
  <path class="cls-3" d="M1079.39,855s7.71-17.23,3.88-20.56-9.75,11.22-9.75,11.22l-7.85-12.41s-9.9-12.82-13.2-13.59-2.23,6.34-2.23,6.34-6.91-9.32-8.9-4,2.23,12.32,2.23,12.32-6.4-9.58-8.23-3c-1,3.55,9.49,29.43,22.7,38.65s15.49-4.57,15.49-4.57Z" transform="translate(-814 -569)"/>
  <path d="M1068.14,856.53a.59.59,0,0,1-1.14.31s-1.35-4-4.94-5.07c-3.08-.9-6.94.54-11.48,4.28a.59.59,0,0,1-.83-.08.6.6,0,0,1,.08-.83c4.86-4,9.09-5.52,12.58-4.5,4.19,1.23,5.65,5.65,5.71,5.84l0,0" transform="translate(-814 -569)"/>
  <line class="cls-9" x1="229.57" y1="265.3" x2="233.81" y2="273.76"/>
  <line class="cls-9" x1="236.57" y1="257.3" x2="241.81" y2="268.76"/>
</svg>
