<svg id="Layer_1" data-name="Layer 1" xmlns="http://www.w3.org/2000/svg" xmlns:xlink="http://www.w3.org/1999/xlink" width="251.74" height="431.35" viewBox="0 0 251.74 431.35">
  <defs>
    <style>
      .clsa-1, .clsa-9 {
        fill: none;
      }

      .clsa-2 {
        fill: #254c58;
      }

      .clsa-3 {
        fill: #f9e07d;
      }

      .clsa-4 {
        fill: #f5cbf7;
      }

      .clsa-5 {
        clip-path: url(#clip-path);
      }

      .clsa-6 {
        fill: #d78752;
      }

      .clsa-7 {
        fill: #937667;
      }

      .clsa-8 {
        fill: #fca397;
      }

      .clsa-9 {
        stroke: #000;
        stroke-linecap: round;
        stroke-linejoin: round;
        stroke-width: 0.91px;
      }
    </style>
    <clipPath id="clip-path" transform="translate(-66 -237.65)">
      <circle class="clsa-1" cx="187.11" cy="342.54" r="104.89"/>
    </clipPath>
  </defs>
  <circle class="clsa-2" cx="117.5" cy="288.85" r="25.5"/>
  <circle class="clsa-3" cx="47" cy="384.35" r="47"/>
  <g>
    <circle class="clsa-4" cx="121.11" cy="104.89" r="104.89"/>
    <g class="clsa-5">
      <polyline class="clsa-6" points="144 166.35 161 209.35 60.39 217.35 59.51 157.35"/>
    </g>
    <path class="clsa-3" d="M205,331s9.54,3.27,11.45,22.41S218,432,218,432l-63.18,2.65-20.68-32.87,12.32-73.4Z" transform="translate(-66 -237.65)"/>
    <path class="clsa-7" d="M267.33,339.19s4.13-18.43,9.19-18.8,1.09,14.82,1.09,14.82L291.33,330s15.61-4.35,18.71-3-2,6.42-2,6.42,11.12-3.34,9.56,2.08-9.16,8.53-9.16,8.53,10.86-3.85,8.41,2.5c-1.33,3.43-25.22,17.9-41.32,17.38S265.85,351,265.85,351Z" transform="translate(-66 -237.65)"/>
    <path d="M302.44,347.45a.6.6,0,0,1-.39-.15l-13.82-11.81a.59.59,0,0,1,.77-.89l13.82,11.81a.59.59,0,0,1-.38,1Z" transform="translate(-66 -237.65)"/>
    <path d="M273.38,354.18a.58.58,0,0,1-.58-.54.59.59,0,0,1,.54-.64s4.22-.39,6.06-3.65c1.58-2.79,1.06-6.88-1.54-12.15a.58.58,0,0,1,.26-.79.6.6,0,0,1,.8.27c2.79,5.64,3.3,10.11,1.5,13.27-2.15,3.8-6.79,4.21-7,4.23Z" transform="translate(-66 -237.65)"/>
    <path class="clsa-7" d="M176.67,408.12s8.75-.94,12.72-.84a156.13,156.13,0,0,1,16.23,1.83A107.72,107.72,0,0,1,225.15,417c8.71,4.84,6.92,8.81,6.92,8.81s5.51,3.89,3,6.21-11.74-.5-11.74-.5,11.55,4.95,6.58,7.37-19.6-4.5-19.6-4.5-25,4.51-32.32-3.91S176.67,408.12,176.67,408.12Z" transform="translate(-66 -237.65)"/>
    <path d="M234.07,426.42a.62.62,0,0,1-.36-.12,89.17,89.17,0,0,0-16.83-9.67.59.59,0,0,1,.47-1.09,91,91,0,0,1,17.08,9.82.59.59,0,0,1-.36,1.06Z" transform="translate(-66 -237.65)"/>
    <path d="M226.48,432a.6.6,0,0,1-.39-.15c-.06-.05-6-5.22-11.81-6.49a.59.59,0,0,1-.45-.7.62.62,0,0,1,.71-.46c6.09,1.34,12.08,6.54,12.33,6.76a.6.6,0,0,1,.06.84A.61.61,0,0,1,226.48,432Z" transform="translate(-66 -237.65)"/>
    <path d="M195.31,302.67s.76-13.95-.55-23.81c-.9-6.68-12.83-10.37-12.83-10.37s-22.61,1-25.6,8.07-.6,17.68-.6,17.68Z" transform="translate(-66 -237.65)"/>
    <path class="clsa-8" d="M164.84,310.1l-.14,16.37s2.91,4.74,12.48,5.6c7.13.64,9.42-3,9.42-3L185,314.72l-17.26-4Z" transform="translate(-66 -237.65)"/>
    <path d="M164.88,309.1a5.11,5.11,0,0,0,.46,1.58c3.59,8.22,16.45,11.73,20.57,12.14l-.91-8.1Z" transform="translate(-66 -237.65)"/>
    <path class="clsa-7" d="M189.19,277.54s8.55,21,5,32.54-14.12,9.48-20.42,7.07a21.09,21.09,0,0,1-9.15-6.38,9,9,0,0,1-9.81-3.74c-3.84-5.62-1.24-11.9,2.18-13.27s7.4,1.18,7.4,1.18l-3-6.11S175.41,258.53,189.19,277.54Z" transform="translate(-66 -237.65)"/>
    <path d="M164.61,294.53s8.7,2.07,15.12-7.48,6-13.57,6-13.57l5.73,10.28s1.59-6.94-1.05-11.49-5.57-3.72-5.57-3.72l-19.49,4.17L159.73,288Z" transform="translate(-66 -237.65)"/>
    <path d="M163.46,304a.6.6,0,0,1-.46-.21l-5.36-6a.62.62,0,0,1,.06-.87.61.61,0,0,1,.87.05l5.36,6a.62.62,0,0,1-.06.87A.59.59,0,0,1,163.46,304Z" transform="translate(-66 -237.65)"/>
    <path d="M157.65,302.29a.63.63,0,0,1-.62-.55.63.63,0,0,1,.55-.69l3.84-.46a.63.63,0,0,1,.69.54.62.62,0,0,1-.54.69l-3.85.46Z" transform="translate(-66 -237.65)"/>
    <path d="M191.93,286.7l-.13,0-3.59-.75a.59.59,0,0,1-.46-.7.61.61,0,0,1,.7-.46l3.6.76a.58.58,0,0,1,.45.7A.59.59,0,0,1,191.93,286.7Z" transform="translate(-66 -237.65)"/>
    <path d="M176.8,288.56a.59.59,0,0,1-.25-1.13l6-2.8a.59.59,0,0,1,.5,1.07l-6,2.81A.74.74,0,0,1,176.8,288.56Z" transform="translate(-66 -237.65)"/>
    <path class="clsa-6" d="M194.11,276.81s-10.68-11-23.34,4.8-4.93,25.83-4.93,25.83,7.62,15.15,22.35,9.54c9.95-3.79,6.57-38.12,6.57-38.12s9.67,27.73,2.15,46.43-26.95,17-36.12,13.76a32.32,32.32,0,0,1-14.33-10.67l5-5.56s-8.05-37.38,3.47-49.95C166.77,260,189.11,260.77,194.11,276.81Z" transform="translate(-66 -237.65)"/>
    <path d="M184.45,309a4.8,4.8,0,0,1-3.83-2,.59.59,0,0,1,1-.66,3.51,3.51,0,0,0,4.1,1.28.59.59,0,1,1,.4,1.11A4.91,4.91,0,0,1,184.45,309Z" transform="translate(-66 -237.65)"/>
    <path class="clsa-6" d="M196.65,323.52,205,331s-4.48,7.46-21.51,8.15S196.65,323.52,196.65,323.52Z" transform="translate(-66 -237.65)"/>
    <path class="clsa-3" d="M181.07,333.64a47.57,47.57,0,0,1-30-10.39.59.59,0,0,1,0-.83.6.6,0,0,1,.84,0c.16.15,16.39,14.65,41.21,8.61a.59.59,0,0,1,.72.43.6.6,0,0,1-.44.72A52,52,0,0,1,181.07,333.64Z" transform="translate(-66 -237.65)"/>
    <path class="clsa-3" d="M188,332.7c-19.6,0-36.84-22-37-22.24a.6.6,0,0,1,.94-.73c.2.26,20.19,25.78,41.16,21.25a.61.61,0,0,1,.7.46.59.59,0,0,1-.45.7A24.86,24.86,0,0,1,188,332.7Z" transform="translate(-66 -237.65)"/>
    <path class="clsa-3" d="M146.46,328.38S100.63,353.5,96.33,391s38.77,43.61,47.86,43.61h44.14V394.12l-41.87-6.22Z" transform="translate(-66 -237.65)"/>
    <path class="clsa-3" d="M209.79,334.76S226,349.6,237.52,350.08s27.42-15.32,27.42-15.32l23.68,34.47s-9,35.85-46.41,41.17S195.81,386,195.81,386Z" transform="translate(-66 -237.65)"/>
    <path class="clsa-2" d="M219.45,409.49a.59.59,0,0,1-.59-.63l.64-8.32a122.05,122.05,0,0,0,1.9-19c.35-11.62-5.18-25.07-5.24-25.21a.6.6,0,0,1,.32-.77.58.58,0,0,1,.77.32c.06.14,5.69,13.82,5.33,25.69a122.27,122.27,0,0,1-1.91,19.18L220,409A.6.6,0,0,1,219.45,409.49Z" transform="translate(-66 -237.65)"/>
    <path class="clsa-2" d="M182.84,393.9l-.15,0c-.3-.08-30.35-7.56-45.7-8.74a.6.6,0,0,1-.55-.64.57.57,0,0,1,.64-.54c15.45,1.19,45.6,8.7,45.9,8.77a.59.59,0,0,1-.14,1.17Z" transform="translate(-66 -237.65)"/>
    <path class="clsa-2" d="M154.64,387.78a.6.6,0,0,1-.29-.08c-2.26-1.24-13.47-7.62-12.28-11.08.51-1.48,1.3-2.27,2.36-2.34h.15c4,0,9.91,11.34,10.58,12.65a.59.59,0,0,1-.11.69A.6.6,0,0,1,154.64,387.78Zm-10-12.33c-.63.05-1.07.57-1.41,1.56-.52,1.5,4.5,5.43,10,8.65C150.62,381.11,146.75,375.45,144.6,375.45Z" transform="translate(-66 -237.65)"/>
    <path class="clsa-2" d="M241.11,362a2.31,2.31,0,0,1-1.51-.57c-2.6-2.19-2.67-10.43-2.67-11.36a.59.59,0,0,1,1.07-.35c1,1.39,6,8.46,4.94,11.17a1.76,1.76,0,0,1-1.42,1.08A2.83,2.83,0,0,1,241.11,362Zm-2.93-9.95c.17,2.93.73,7.25,2.19,8.48a1.12,1.12,0,0,0,.95.28.6.6,0,0,0,.52-.37C242.39,359.09,240.2,355.09,238.18,352.06Z" transform="translate(-66 -237.65)"/>
    <circle cx="114.52" cy="54.17" r="0.96"/>
    <circle cx="123.97" cy="54.17" r="0.96"/>
    <path class="clsa-9" d="M186.6,296.63s4.09-2.28,3.93-.58-2,3.64-2,3.64" transform="translate(-66 -237.65)"/>
  </g>
</svg>
