<svg xmlns="http://www.w3.org/2000/svg" viewBox="0 0 285.75 241.12"><defs><style>.cls-1{fill:#f9e07d;}.cls-2{fill:#d78752;}.cls-3{fill:#ad4d40;}.cls-4{fill:#254c58;}.cls-5,.cls-6{fill:none;stroke:#000;stroke-linecap:round;stroke-linejoin:round;}.cls-5{stroke-width:1.21px;}.cls-6{stroke-width:1.12px;}.cls-7{fill:#f5cbf7;}</style></defs><g id="Layer_2" data-name="Layer 2"><g id="Layer_1-2" data-name="Layer 1"><path class="cls-1" d="M280.14,235H166c-1.75-10.56-2.82-16.89-2.82-16.89l24.24-3.37,81-11.18s5.7,13,11.76,31.44"/><path d="M196.67,12.08s-40,32.07-24.78,67.6C186.58,114.05,216.29,98,216.29,98l-2.48-80.42Z"/><path d="M232.27,24.61s21.31,5.74,26.47,21.23a44.77,44.77,0,0,1,0,28.39S288,103,267.55,119.87,215.44,129,215.44,129L203.54,22.66Z"/><path class="cls-2" d="M219.86,37.73a22.68,22.68,0,0,1-22.68,22.68c-12.53,0-23.82-10.2-22.68-22.68,1.19-13.13,10.15-22.68,22.68-22.68A22.69,22.69,0,0,1,219.86,37.73Z"/><path class="cls-2" d="M52.86,165.22s46,31.57,82.49,21.53c38.16-10.49,56.58-37.23,56.58-37.23l-30.26-17.93s-29.22,1.72-42.55,4.09c-12.51,2.23-68.12,3.9-68.12,3.9Z"/><path class="cls-1" d="M176.93,93.14s-12.14,10.73-20.21,19.14c-5,5.16-22.89,14.91-22.89,14.91l26.73,56.55L175,180.91Z"/><path class="cls-3" d="M192.76,213.93,200,226.3h-35.1c.87-11.54,1.65-18.59,1.65-18.59L190,209.27Z"/><path class="cls-1" d="M165.23,222.21S151.8,117.8,173.49,96.27c26.26-26.06,59.45-11.67,59.45-11.67l13.61,123.79S204,231.23,165.23,222.21"/><path class="cls-2" d="M210.91,62.86,214.17,82s-2.52,6.1-13.56,8.91C192.38,93,189,89.18,189,89.18l-.83-17.1,19.46-7.89Z"/><path d="M207.64,64.19a6.34,6.34,0,0,1-.24,1.94c-2.65,10.29-14,14.35-18.76,15.6l-.46-9.65Z"/><path class="cls-2" d="M176.47,29.17s-5.95,25.71.28,38.37,18,8.3,24.81,4.36a24.53,24.53,0,0,0,9.35-9,10.45,10.45,0,0,0,10.61-6.13c3.37-7.18-.79-13.92-5-14.86s-8.29,2.72-8.29,2.72L210.58,37S188.8,4.72,176.47,29.17"/><path class="cls-2" d="M177.38,203.46s31.14-1.12,40.76-9.71S228,162.1,228,162.1l52.81,1.4s4.41,45.05-31.63,62.5c-20.47,9.9-72,3.77-72,3.77Z"/><path class="cls-1" d="M232.94,84.6s28.38,7,40.71,32.48,12.1,60.59,12.1,60.59l-61.48-2.28,5.25-53.78a118.4,118.4,0,0,1,2-23.54Z"/><path d="M193,39.12a.79.79,0,0,1-.63-.29,3.82,3.82,0,0,0-2.67-1.51,4.76,4.76,0,0,0-3,1.17.83.83,0,1,1-1.14-1.21,6.28,6.28,0,0,1,4.26-1.62,5.4,5.4,0,0,1,3.85,2.1.83.83,0,0,1-.09,1.17.85.85,0,0,1-.54.19"/><path d="M175,40.31a.65.65,0,0,1-.19,0,.83.83,0,0,1-.62-1,2.38,2.38,0,0,1,1.25-1.63c1.53-.77,3.74.15,4,.26a.83.83,0,1,1-.66,1.52,4,4,0,0,0-2.58-.29.66.66,0,0,0-.38.53.82.82,0,0,1-.81.63"/><path class="cls-4" d="M195.36,92.37c-6.7,0-8.92-3.45-9-3.63a.83.83,0,0,1,1.41-.88c.13.19,3,4.39,12.7,2.24,9.95-2.2,13-8.38,13-8.45a.83.83,0,1,1,1.5.7c-.13.29-3.33,7-14.13,9.37a25.09,25.09,0,0,1-5.43.65"/><path class="cls-4" d="M224.83,174.32a.82.82,0,0,1-.83-.74c0-.22-2.1-21.51-.19-37.34a.82.82,0,0,1,.92-.72.83.83,0,0,1,.73.92c-1.89,15.65.17,36.76.19,37a.82.82,0,0,1-.74.91h-.08"/><path class="cls-4" d="M223.67,155.72a.83.83,0,0,1-.63-.29c-1.23-1.41-11.9-13.94-8.88-19.75.59-1.15,1.34-1.31,1.87-1.24,3.25.38,7,14.29,8.44,20.25a.81.81,0,0,1-.42.93.75.75,0,0,1-.38.1m-7.82-19.63s-.09.11-.22.35c-1.68,3.24,2.8,10.35,6.28,14.95-2.26-8.31-4.85-15-6.06-15.3"/><path class="cls-4" d="M160.56,184.57a.84.84,0,0,1-.82-.69c-.3-1.84-7.34-45.33,2.85-64a.84.84,0,0,1,1.13-.33.82.82,0,0,1,.33,1.12c-9.92,18.2-2.75,62.52-2.67,63a.82.82,0,0,1-.68.95h-.14"/><path class="cls-5" d="M211.75,54.51S211.86,47,217,47.4"/><path class="cls-2" d="M55.2,165.64S32,165,18.39,159.79s-17-10.06-16.56-12.19,9.74-.76,9.74-.76-12.66-5.25-11.49-9.9,12.78-1.26,12.78-1.26-8.26-5.62-5.12-8.42,24,5.2,24,5.2-8.91-7.32-6.5-9.52,18.1,2.56,22.68,7,8.91,12.49,8.91,12.49Z"/><path d="M45.81,149.11a.7.7,0,0,0,.35-.59.71.71,0,0,0-.68-.72c-9.63-.27-11.8-14.21-11.82-14.35a.71.71,0,0,0-1.4.21c.09.62,2.37,15.24,13.18,15.55a.69.69,0,0,0,.37-.1"/><path d="M183.93,65.89a5.9,5.9,0,0,0,4.84-2.22.73.73,0,0,0-1.16-.88,4.31,4.31,0,0,1-5.12,1.27.73.73,0,0,0-1,.39.72.72,0,0,0,.38,1A6.13,6.13,0,0,0,183.93,65.89Z"/><circle cx="189.97" cy="45.15" r="1.18"/><circle cx="178.4" cy="44.47" r="1.18"/><path class="cls-6" d="M182.19,50.6S178,48.91,178,51a4.48,4.48,0,0,0,1.52,3.21"/><path class="cls-2" d="M187.5,204.88s-25.64-6.47-36.2-1.91-15.69,25.4-14.64,27.48,4.43,1.85,4.43,1.85-.42,3.92,1.39,5.5,5.31-.25,5.31-.25,4.43,4.31,8.3,3.46,6.92-3.27,6.54-6.29-2.31-3.86-2.31-3.86l1.94.83s2.87,4.48,12,5,19.58-11.54,19.58-11.54Z"/><path d="M141.09,233.12a.82.82,0,0,1-.78-1.09l5.81-17.55a.83.83,0,0,1,1-.53.84.84,0,0,1,.53,1.05l-5.82,17.56a.82.82,0,0,1-.79.56"/><path d="M147.79,238.38a.73.73,0,0,1-.25,0,.83.83,0,0,1-.54-1l6.05-18.92a.83.83,0,1,1,1.58.51l-6,18.91a.82.82,0,0,1-.79.58"/><path d="M160.32,231.69a.81.81,0,0,1-.45-.13.83.83,0,0,1-.25-1.15l2.93-4.53a.84.84,0,0,1,1.15-.25.83.83,0,0,1,.25,1.15L161,231.31a.83.83,0,0,1-.7.38"/><path d="M167.64,44a.93.93,0,0,1-.81-1.2c1.49-4.84.72-33.07,16.72-32.07,5.82.36,2.43.39,3,0,8.41,2.5,14.78,5.15,23.9,8.84,5.44,2.19,10.71,4.49,15.71,6.83a.9.9,0,0,1,.51.6c2.15,7.94.94,16.18.29,19.5a.92.92,0,0,1-1.45.57,12.55,12.55,0,0,0-12-1.51.89.89,0,0,0-.42.3l-4.32,5.46a.9.9,0,0,1-1,.31c-2.72-.84-13.81-5.17-18.18-20.9-2.2-7.93-1-5-1-5S175,44.75,167.64,44Z"/><path d="M182.55,11.77s3.16-18.64,34-9c16,5,22,36,22,36l-23.94-6.4L190.72,13.11Z"/><path class="cls-7" d="M234.77,26.48a1,1,0,0,1-.83-.45c-.27-.39-6.49-9.81-4.38-16.15a7.4,7.4,0,0,1,4.88-4.67c2.18-.76,3.81-.57,4.87.59.61.67,3.33,4.8-3.62,20.09a1,1,0,0,1-.83.59Zm2-19.71a5.14,5.14,0,0,0-1.64.35,5.37,5.37,0,0,0-3.63,3.4c-1.34,4,1.54,9.93,3.15,12.76,2.55-6.09,4.93-14.21,3.19-16.12A1.38,1.38,0,0,0,236.75,6.77Z"/><path class="cls-7" d="M234.45,26.12a1,1,0,0,1,.16-.93c.29-.38,7.23-9.28,13.91-9.31a7.41,7.41,0,0,1,6,3.13c1.41,1.82,1.75,3.44,1,4.8-.44.8-3.48,4.7-20.19,3a1,1,0,0,1-.83-.61Zm19.31-4.42a4.91,4.91,0,0,0-.85-1.44,5.38,5.38,0,0,0-4.38-2.36c-4.22,0-8.91,4.63-11.09,7.06,6.59.47,15.05.14,16.3-2.12A1.36,1.36,0,0,0,253.76,21.7Z"/><circle class="cls-7" cx="235.05" cy="27.27" r="3.5"/></g></g></svg>