<svg id="Layer_1" data-name="Layer 1" xmlns="http://www.w3.org/2000/svg" width="285.75" height="247.48" viewBox="0 0 285.75 247.48">
  <defs>
    <style>
      .clsi-1 {
        fill: #f9e07d;
      }

      .clsi-2 {
        fill: #d78752;
      }

      .clsi-3 {
        fill: #ad4d40;
      }

      .clsi-4 {
        fill: #254c58;
      }

      .clsi-5, .clsi-6 {
        fill: none;
        stroke: #000;
        stroke-linecap: round;
        stroke-linejoin: round;
      }

      .clsi-5 {
        stroke-width: 1.21px;
      }

      .clsi-6 {
        stroke-width: 1.12px;
      }

      .clsi-7 {
        fill: #f5cbf7;
      }
    </style>
  </defs>
  <path class="clsi-1" d="M1270.59,478.71H1156.44c-1.76-14.76-2.83-23.61-2.83-23.61l24.24-4.71,81-15.63s5.69,18.21,11.75,43.95" transform="translate(-990.45 -231.23)"/>
  <path d="M1187.12,243.31s-40,32.07-24.78,67.6c14.69,34.38,44.4,18.37,44.4,18.37l-2.48-80.43Z" transform="translate(-990.45 -231.23)"/>
  <path d="M1222.72,255.85s21.31,5.73,26.47,21.22a44.77,44.77,0,0,1,0,28.39s29.3,28.82,8.81,45.64-52.11,9.15-52.11,9.15L1194,253.89Z" transform="translate(-990.45 -231.23)"/>
  <path class="clsi-2" d="M1210.31,269a22.69,22.69,0,0,1-22.68,22.68c-12.53,0-23.81-10.21-22.68-22.68,1.19-13.13,10.15-22.68,22.68-22.68A22.68,22.68,0,0,1,1210.31,269Z" transform="translate(-990.45 -231.23)"/>
  <path class="clsi-2" d="M1043.31,396.45s46,31.57,82.49,21.53c38.16-10.48,56.58-37.23,56.58-37.23l-30.26-17.92s-29.22,1.71-42.55,4.08c-12.51,2.23-68.12,3.9-68.12,3.9Z" transform="translate(-990.45 -231.23)"/>
  <path class="clsi-1" d="M1167.38,324.38s-12.14,10.72-20.21,19.13c-5,5.16-22.89,14.91-22.89,14.91L1151,415l14.43-2.84Z" transform="translate(-990.45 -231.23)"/>
  <path class="clsi-3" d="M1183.21,445.17l7.25,12.37h-35.1c.88-11.54,1.65-18.6,1.65-18.6l23.44,1.56Z" transform="translate(-990.45 -231.23)"/>
  <path class="clsi-1" d="M1155.68,453.44s-13.43-104.4,8.26-125.93c26.26-26.07,59.45-11.67,59.45-11.67L1237,439.63s-42.52,22.83-81.33,13.81" transform="translate(-990.45 -231.23)"/>
  <path class="clsi-2" d="M1201.36,294.09l3.26,19.15s-2.51,6.09-13.56,8.91c-8.23,2.1-11.6-1.74-11.6-1.74l-.83-17.1,19.46-7.89Z" transform="translate(-990.45 -231.23)"/>
  <path d="M1198.09,295.42a6.34,6.34,0,0,1-.24,1.94c-2.65,10.29-14,14.35-18.76,15.6l-.46-9.65Z" transform="translate(-990.45 -231.23)"/>
  <path class="clsi-2" d="M1166.92,260.4s-6,25.72.28,38.38,18,8.29,24.81,4.35,9.35-9,9.35-9A10.47,10.47,0,0,0,1212,288c3.37-7.17-.79-13.92-5-14.86s-8.29,2.73-8.29,2.73l2.33-7.59s-21.78-32.28-34.11-7.84" transform="translate(-990.45 -231.23)"/>
  <path class="clsi-2" d="M1167.83,434.7s31.14-1.12,40.76-9.72,9.85-31.64,9.85-31.64l52.81,1.39s4.41,45-31.63,62.5c-20.47,9.9-72,3.78-72,3.78Z" transform="translate(-990.45 -231.23)"/>
  <path class="clsi-1" d="M1223.39,315.84s28.38,7,40.71,32.48,12.1,60.58,12.1,60.58l-61.48-2.28,5.25-53.78a118.4,118.4,0,0,1,2-23.54Z" transform="translate(-990.45 -231.23)"/>
  <path d="M1183.41,270.36a.82.82,0,0,1-.63-.29,3.87,3.87,0,0,0-2.67-1.52,4.69,4.69,0,0,0-3,1.18.83.83,0,0,1-1.14-1.22,6.41,6.41,0,0,1,4.26-1.62A5.42,5.42,0,0,1,1184,269a.83.83,0,0,1-.09,1.17.86.86,0,0,1-.54.2" transform="translate(-990.45 -231.23)"/>
  <path d="M1165.45,271.55l-.19,0a.85.85,0,0,1-.62-1,2.36,2.36,0,0,1,1.25-1.63c1.53-.77,3.74.14,4,.25a.83.83,0,0,1,.43,1.09.84.84,0,0,1-1.09.44,4,4,0,0,0-2.58-.3.68.68,0,0,0-.38.53.83.83,0,0,1-.81.64" transform="translate(-990.45 -231.23)"/>
  <path class="clsi-4" d="M1185.81,323.6c-6.7,0-8.92-3.45-9-3.63a.83.83,0,0,1,.27-1.14.84.84,0,0,1,1.14.26c.13.2,3,4.39,12.7,2.25,9.95-2.2,13-8.39,13-8.45a.82.82,0,0,1,1.1-.4.81.81,0,0,1,.4,1.09c-.13.29-3.33,7-14.13,9.38a25,25,0,0,1-5.43.64" transform="translate(-990.45 -231.23)"/>
  <path class="clsi-4" d="M1215.28,405.56a.83.83,0,0,1-.83-.75c0-.21-2.1-21.5-.19-37.33a.83.83,0,1,1,1.65.19c-1.89,15.65.17,36.77.19,37a.82.82,0,0,1-.74.9h-.08" transform="translate(-990.45 -231.23)"/>
  <path class="clsi-4" d="M1214.12,387a.85.85,0,0,1-.63-.29c-1.23-1.41-11.9-13.93-8.88-19.75.59-1.14,1.34-1.31,1.87-1.24,3.25.39,7,14.29,8.45,20.25a.84.84,0,0,1-.43.94.85.85,0,0,1-.38.09m-7.82-19.63s-.09.11-.22.36c-1.68,3.24,2.8,10.35,6.28,14.94-2.26-8.3-4.85-15-6.06-15.3" transform="translate(-990.45 -231.23)"/>
  <path class="clsi-4" d="M1151,415.81a.84.84,0,0,1-.82-.7c-.3-1.84-7.34-45.33,2.85-64a.84.84,0,0,1,1.13-.33.83.83,0,0,1,.33,1.13c-9.92,18.2-2.75,62.51-2.67,63a.82.82,0,0,1-.68,1l-.14,0" transform="translate(-990.45 -231.23)"/>
  <path class="clsi-5" d="M1202.2,285.75s.11-7.48,5.26-7.12" transform="translate(-990.45 -231.23)"/>
  <path class="clsi-2" d="M1045.65,396.88s-23.2-.63-36.81-5.85S991.79,381,992.28,378.84s9.74-.76,9.74-.76-12.66-5.26-11.49-9.9,12.78-1.26,12.78-1.26-8.26-5.62-5.12-8.43,24,5.2,24,5.2-8.9-7.31-6.5-9.51,18.1,2.55,22.68,7,8.91,12.49,8.91,12.49Z" transform="translate(-990.45 -231.23)"/>
  <path d="M1036.26,380.35a.73.73,0,0,0,.35-.59.71.71,0,0,0-.68-.73c-9.63-.26-11.8-14.2-11.82-14.34a.71.71,0,1,0-1.4.2c.1.63,2.37,15.25,13.18,15.55a.78.78,0,0,0,.37-.09" transform="translate(-990.45 -231.23)"/>
  <path d="M1174.38,297.12a5.89,5.89,0,0,0,4.84-2.21.74.74,0,0,0-.14-1,.73.73,0,0,0-1,.14,4.31,4.31,0,0,1-5.12,1.27.73.73,0,0,0-.57,1.34A6.1,6.1,0,0,0,1174.38,297.12Z" transform="translate(-990.45 -231.23)"/>
  <circle cx="189.97" cy="45.15" r="1.18"/>
  <circle cx="178.4" cy="44.47" r="1.18"/>
  <path class="clsi-6" d="M1172.64,281.84s-4.23-1.7-4.16.39a4.49,4.49,0,0,0,1.52,3.22" transform="translate(-990.45 -231.23)"/>
  <g>
    <path class="clsi-2" d="M1178,436.11s-25.64-6.47-36.2-1.91-15.69,25.4-14.64,27.48,4.43,1.85,4.43,1.85-.42,3.93,1.39,5.5,5.31-.25,5.31-.25,4.43,4.31,8.3,3.46,6.92-3.26,6.54-6.29-2.31-3.86-2.31-3.86l1.94.83s2.87,4.48,12,5,19.58-11.55,19.58-11.55Z" transform="translate(-990.45 -231.23)"/>
    <path d="M1131.54,464.36a.82.82,0,0,1-.78-1.09l5.81-17.56a.83.83,0,0,1,1.58.52l-5.82,17.56a.83.83,0,0,1-.79.57" transform="translate(-990.45 -231.23)"/>
    <path d="M1138.24,469.61l-.25,0a.83.83,0,0,1-.54-1.05l6-18.91a.83.83,0,1,1,1.58.5L1139,469a.85.85,0,0,1-.8.57" transform="translate(-990.45 -231.23)"/>
    <path d="M1150.77,462.92a.81.81,0,0,1-.45-.13.83.83,0,0,1-.25-1.15l2.93-4.53a.84.84,0,0,1,1.15-.24.82.82,0,0,1,.25,1.14l-2.93,4.53a.83.83,0,0,1-.7.38" transform="translate(-990.45 -231.23)"/>
  </g>
  <path d="M1158.09,275.27a.92.92,0,0,1-.81-1.19c1.5-4.85.72-33.08,16.72-32.08,5.82.36,2.43.39,3,0,8.41,2.5,14.78,5.16,23.9,8.84,5.44,2.2,10.71,4.5,15.71,6.83a1,1,0,0,1,.51.6c2.15,7.94.94,16.18.29,19.5a.92.92,0,0,1-1.45.57,12.54,12.54,0,0,0-12-1.51,1,1,0,0,0-.42.3l-4.32,5.47a.94.94,0,0,1-1,.31c-2.72-.84-13.81-5.18-18.18-20.91-2.2-7.93-1-5-1-5S1165.44,276,1158.09,275.27Z" transform="translate(-990.45 -231.23)"/>
  <path d="M1173,243s3.16-18.64,34-9c16,5,22,36,22,36l-23.94-6.39-23.89-19.26Z" transform="translate(-990.45 -231.23)"/>
  <g>
    <path class="clsi-7" d="M1225.23,257.72a1,1,0,0,1-.84-.45c-.27-.4-6.49-9.82-4.38-16.15a7.36,7.36,0,0,1,4.88-4.67c2.18-.77,3.81-.57,4.87.58.62.67,3.33,4.8-3.62,20.09a1,1,0,0,1-.83.59Zm2-19.71a5.09,5.09,0,0,0-1.64.34,5.37,5.37,0,0,0-3.63,3.4c-1.34,4,1.54,9.93,3.15,12.77,2.55-6.1,4.93-14.22,3.19-16.12A1.38,1.38,0,0,0,1227.2,238Z" transform="translate(-990.45 -231.23)"/>
    <path class="clsi-7" d="M1224.91,257.36a1,1,0,0,1,.15-.94c.29-.38,7.23-9.28,13.91-9.3a7.35,7.35,0,0,1,6,3.13c1.42,1.81,1.75,3.43,1,4.8-.45.8-3.49,4.69-20.2,3a1,1,0,0,1-.83-.61A.19.19,0,0,1,1224.91,257.36Zm19.3-4.42a5,5,0,0,0-.84-1.45,5.37,5.37,0,0,0-4.39-2.35c-4.22,0-8.91,4.63-11.09,7.06,6.59.47,15,.13,16.3-2.13A1.33,1.33,0,0,0,1244.21,252.94Z" transform="translate(-990.45 -231.23)"/>
  </g>
  <circle class="clsi-7" cx="235.05" cy="27.27" r="3.5"/>
</svg>
