<svg id="Layer_1" data-name="Layer 1" xmlns="http://www.w3.org/2000/svg" width="220" height="228.9"><defs><clipPath id="clip-path2" transform="translate(-573 -1038.3)"><circle cx="690.6" cy="1140.6" r="102.4" fill="none"/></clipPath><style>.clsz-4{fill:#50bfa5}.clsz-5{fill:#937667}.clsz-6{fill:#fff}</style></defs><circle cx="117.6" cy="102.4" r="102.4" fill="#f9e07d"/><g clip-path="url(#clip-path2)"><path class="clsz-4" d="M690 1111.5s-19.8 1.5-29.8 16.2c-2.3 3.5-6.7 108.4-6.1 109.7s18 11.5 49 11.8 37.5-4.6 38.6-6.6 4.3-109.7-2.9-119-30.1-14.2-48.8-12.1Z" transform="translate(-573 -1038.3)"/></g><path class="clsz-5" d="m638.1 1143.6-11.6-26.4-23.3 6.8s1.4 56.4 26.1 62.9c22.8 6 32-7.7 32-7.7Z" transform="translate(-573 -1038.3)"/><path class="clsz-5" d="M628.2 1105.8s-4.5-10-11-13.6-13.7-5.5-11.7-1.4 7.2 10.1 7.2 10.1l-10.7-.7a89 89 0 0 0-12.2-2c-5.1-.4-6 3.4-6 3.4s-5-.3-6.8 1.5.3 4.6.3 4.6-6.9 1.5-3.2 6.2 19 11 26.2 12.7 22.5.9 22.5.9 14 .3 5.4-21.7Z" transform="translate(-573 -1038.3)"/><path d="M626.8 1114.5c-6-.3-10.3-2-12.5-5.1a9.2 9.2 0 0 1-1.6-7.2.7.7 0 1 1 1.4.3 7.8 7.8 0 0 0 1.4 6c2 2.7 5.8 4.2 11.3 4.6a.7.7 0 0 1 0 1.4Z" transform="translate(-573 -1038.3)"/><path class="clsz-4" d="m602 1130.2 33.2-11.2 13.1 18.2s8.2-14.1 20-19-5.2 73.1-5.2 73.1-27.9 16.6-45.3-2.8c-14.4-16-15.8-58.3-15.8-58.3Z" transform="translate(-573 -1038.3)"/><path class="clsz-6" d="M647.2 1151a1.7 1.7 0 0 1-1.4-.8c-1.8-2.4.5-11.5 1-13.3a.7.7 0 0 1 1.4 0c.4 1.8 2.3 11 .4 13.3a1.7 1.7 0 0 1-1.4.7Zm.2-10.3c-.7 3.6-1.2 7.6-.4 8.6a.3.3 0 0 0 .2.2.2.2 0 0 0 .2-.2c.9-1 .6-5 0-8.6Z" transform="translate(-573 -1038.3)"/><path d="M682.5 1059s-7.4 8.3-3.4 17.5 8.4-16.7 8.4-16.7Z" transform="translate(-573 -1038.3)"/><path class="clsz-5" d="m707.3 1096.5.3 16.5s-3 4.8-12.6 5.8c-7.2.7-9.8-.9-9.8-.9l.9-8.4.8-8.2 17.4-4.1Z" transform="translate(-573 -1038.3)"/><path class="clsz-5" d="M685.6 1059.8a15.6 15.6 0 0 0-4.8 7.2c-2.2 6.4-6.5 21.3-3.7 30.4 3.8 12 14.5 9.7 20.8 7.2a21.3 21.3 0 0 0 9.3-6.6 9 9 0 0 0 9.9-4c3.8-5.8 1.1-12.2-2.4-13.6s-7.5 1.3-7.5 1.3l3-6.3s-12-25.8-24.6-15.6Z" transform="translate(-573 -1038.3)"/><path d="M707.3 1081.7s-1.8 6.9-3 6-2.6-10.8-1.6-15.2 1.7-6.7 1.7-6.7-18-1.6-22.9-6 5.3-7 15.6-5 14.4 5.8 14.4 5.8 6.4-1 8.9 3-3.1 18.9-3.1 18.9-1.7-3.8-10-.8Z" transform="translate(-573 -1038.3)"/><path d="M668.1 1088.4a.7.7 0 0 1-.3-1.1c2-2 7-6.8 10-6 2.5 1 4 3.8 4.5 5.4a.7.7 0 0 0 1.1.2c1.5-1.6 4.8-4.6 8.3-3.3 4.7 1.7 14.8 2.3 15 3.9s-2.5 2.1-2.9 2.2c-1 .1-22.8 2.5-35.6-1.3Z" transform="translate(-573 -1038.3)"/><path d="M707.3 1081.7s-.3 11.1-.1 16.3-18.1 14.5-28 10.1-6.2-20-6.2-20l12 2.1a16.7 16.7 0 0 1 4.3-1.6c2.3-.5 5.3.8 5.3.8Z" transform="translate(-573 -1038.3)"/><path class="clsz-4" d="M723.4 1114.2s19.1 2.9 33.1 26a90.4 90.4 0 0 1 12.6 48.2l-46.7-2.7Z" transform="translate(-573 -1038.3)"/><path class="clsz-6" d="M654.7 1194.8a.7.7 0 0 1-.7-.7v-10.6a.7.7 0 0 1 1.4 0v10.6a.7.7 0 0 1-.7.7Z" transform="translate(-573 -1038.3)"/><path class="clsz-5" d="M710.3 1218.5S694.8 1230 693 1238s-2.6 23.5.6 25.2 5-1.9 5-1.9 1.4 3.7 4 4 4.3-3 4.3-3 .8 5 4 4.7 6.4-10 6.8-12.3.6-6.7.6-6.7 16.2.1 20.8-13.9c5.8-17.7-28.8-15.7-28.8-15.7Z" transform="translate(-573 -1038.3)"/><path class="clsz-4" d="M769 1188.5a103 103 0 0 1-12 26.7c-9 14-13.2 18.8-13.2 18.8l-40.2-16.4 22.5-38.2Z" transform="translate(-573 -1038.3)"/><path class="clsz-6" d="M711.8 1204.3a1 1 0 0 1-.2 0 .7.7 0 0 1-.4-1c.3-1 9.5-26 28.8-29a.7.7 0 1 1 .2 1.5c-18.4 2.8-27.6 27.7-27.7 28a.7.7 0 0 1-.7.5Z" transform="translate(-573 -1038.3)"/><path class="clsz-6" d="M723.5 1184.5a.7.7 0 0 1-.3 0 .7.7 0 0 1-.5-.7c0-1 .4-9.7 3.1-12a2.5 2.5 0 0 1 1.9-.7 1.7 1.7 0 0 1 1.5 1c1.2 2.6-4 10.6-5.1 12.2a.7.7 0 0 1-.6.3Zm4-12a1 1 0 0 0-.7.3c-1.4 1.2-2 5.2-2.4 8.3 2.2-3.6 4-7.4 3.5-8.4l-.3-.1Z" transform="translate(-573 -1038.3)"/><path d="M695.2 1070.3a.7.7 0 0 1-.5-.3 3.4 3.4 0 0 0-2.3-1.3 4.1 4.1 0 0 0-2.7 1 .7.7 0 0 1-1 0 .7.7 0 0 1 0-1 5.6 5.6 0 0 1 3.7-1.4 4.7 4.7 0 0 1 3.4 1.8.7.7 0 0 1-.6 1.2m-16.2-.3h-.3a.7.7 0 0 1-.5-.9 2 2 0 0 1 1.1-1.4c1.3-.7 3.3.1 3.5.2a.7.7 0 0 1 .3 1 .7.7 0 0 1-1 .4 3.5 3.5 0 0 0-2.2-.3.6.6 0 0 0-.3.5.7.7 0 0 1-.7.5" transform="translate(-573 -1038.3)"/><path d="M137.2 53s0-6.5 4.6-6.2" stroke-width="1.1" stroke="#000" stroke-linecap="round" stroke-linejoin="round" fill="none"/><path class="clsz-5" d="M686 1092.2a5.1 5.1 0 0 0 4.2-2 .6.6 0 1 0-1-.7 3.8 3.8 0 0 1-4.5 1.1.6.6 0 0 0-.5 1.2 5.2 5.2 0 0 0 1.8.4Z" transform="translate(-573 -1038.3)"/><circle cx="118.2" cy="35.9" r="1"/><circle cx="108.2" cy="35.3" r="1"/><path d="M684.5 1076.8s-3.7-1.5-3.6.4a3.9 3.9 0 0 0 1.3 2.8" transform="translate(-573 -1038.3)" stroke="#000" stroke-linecap="round" stroke-linejoin="round" fill="none"/></svg>