<svg id="Layer_1" data-name="Layer 1" xmlns="http://www.w3.org/2000/svg" width="349.49" height="426.62" viewBox="0 0 349.49 426.62">
  <defs>
    <style>
      .clse-1 {
        fill: #50bfa5;
      }

      .clse-2 {
        fill: #937667;
      }

      .clse-3 {
        fill: #f9e07d;
      }

      .clse-4 {
        fill: #254c58;
      }

      .clse-5 {
        fill: #d78752;
      }

      .clse-6 {
        fill: #f5cbf7;
      }

      .clse-7 {
        fill: #fdf4e9;
      }

      .clse-8 {
        fill: #6b9493;
      }

      .clse-9 {
        fill: #fff;
      }

      .clse-10, .clse-11 {
        fill: none;
        stroke-linecap: round;
      }

      .clse-10 {
        stroke: #000;
        stroke-linejoin: round;
        stroke-width: 0.76px;
      }

      .clse-11 {
        stroke: #fdf4e9;
        stroke-miterlimit: 10;
        stroke-width: 1.68px;
      }
    </style>
  </defs>
  <path class="clse-1" d="M1311.22,474.71l-8.89-19a32.76,32.76,0,0,0-20.83-17.87A54,54,0,0,1,1247,408.61l-6.28-13.43c-4.43-9.47-3.73-20.55,2.1-28.65a32.34,32.34,0,0,0,2.6-32.54l-11.9-25.47c-16.29-34.83-2.9-75.5,29.9-90.82,13-6.09,28.81.19,35.27,14l8.35,18.81c7.09,15.15,16.71,22,25.85,24.61a76,76,0,0,1,33.21,20l.84,250.68-8-1.12a43.24,43.24,0,0,1-36.58-31c-4.79-16.78-9.55-35.47-11.17-38.95" transform="translate(-1017.46 -213)"/>
  <g>
    <path class="clse-2" d="M1069.4,410.43s-2.34,17.17-.14,27.82,5.35,13.78,7,13.67,1.74-7.08,1.74-7.08,2.34,10,5.9,9.67,2.48-9.27,2.48-9.27,3.13,6.77,5.58,4.79-.93-18.27-.93-18.27,4.31,7.44,6.22,5.94.31-13.65-2.39-17.55-8.12-8.08-8.12-8.08Z" transform="translate(-1017.46 -213)"/>
    <path class="clse-3" d="M1068.6,418.68s-18.69-43.52,16.29-84.15c25.67-29.83,47.23,14.55,47.23,14.55s-17.74,15.95-24.75,28.73c-6.92,12.6-13.77,38.84-13.77,38.84Z" transform="translate(-1017.46 -213)"/>
    <path d="M1116.72,278.56s13.08-5.43,20.79,0A39.77,39.77,0,0,1,1148,289.2a12.22,12.22,0,0,1,1.73,4.09c1.27,5.75,5.4,23.08,3.72,25.6-3.55,5.33-28.58,5.89-28.58,5.89l.91-33.94Z" transform="translate(-1017.46 -213)"/>
    <path class="clse-2" d="M1073.65,600.24s-17.11-88.48-7-105,41.31.53,41.31.53-4.49,100-1.42,108.3-27.33,7.18-27.33,7.18Z" transform="translate(-1017.46 -213)"/>
    <path class="clse-4" d="M1101.42,638a4.73,4.73,0,0,0,4.53-4.66c.42-10.24,2.62-33.13.75-33.2-2.38-.1-26.56,5.44-26.56,5.44s-.1-14.21-10.08-12.07c-7.65,1.65-16.79,10.31-20.63,14.25a8.62,8.62,0,0,1-4.4,2.44c-7.12,1.47-26.77,6.46-27.47,16.86-.86,12.72,4.3,11.47,6.68,11.57C1026.29,638.73,1084.87,638.18,1101.42,638Z" transform="translate(-1017.46 -213)"/>
    <path class="clse-4" d="M1195,589.17a4.51,4.51,0,0,0,.73-6.18c-5.63-8-17.28-26.74-18.75-25.71-1.87,1.31-17,19.6-17,19.6s-8.35-10.76-14.69-3.32c-4.87,5.7-6.79,17.62-7.42,22.85a8.22,8.22,0,0,1-1.93,4.42c-4.57,5.26-16.61,20.5-11.1,28.83,6.75,10.18,10,6.22,11.82,4.91C1138.21,633.44,1182.48,598.93,1195,589.17Z" transform="translate(-1017.46 -213)"/>
    <path class="clse-2" d="M1093.76,479.42s3.6,63.73,48.85,96.38c36.3,26.2,10.64-75.18,10.64-75.18l-30.7-21.2Z" transform="translate(-1017.46 -213)"/>
    <path class="clse-5" d="M1203.84,302.23s-19.91,16-12.35,33.68c7.32,17.13,22.12,9.15,22.12,9.15L1212.38,305Z" transform="translate(-1017.46 -213)"/>
    <path class="clse-5" d="M1234.7,299.26s10.7,2.88,13.29,10.66a22.43,22.43,0,0,1,0,14.25s14.71,14.46,4.42,22.91-26.16,4.59-26.16,4.59l-6-53.39Z" transform="translate(-1017.46 -213)"/>
    <path class="clse-6" d="M1164,582.78s-9.06,19.3-10.56,20.05-32.7,13.67-35.67,19.3a8.75,8.75,0,0,0,.49,9.68s74.57-2.8,77-4.29,1.92-39.13,1.92-39.13Z" transform="translate(-1017.46 -213)"/>
    <polygon class="clse-4" points="99.54 416.37 179.16 409.57 179.54 420.41 99.76 425.53 99.54 416.37"/>
    <polygon class="clse-4" points="113.43 400.27 123.71 395.29 130.47 413.73 120.74 416.75 113.43 400.27"/>
    <path class="clse-6" d="M1254.85,580.88s3.32,6.29,2.83,7.89-12.52,33.15-10.46,39.18a8.75,8.75,0,0,0,7.37,6.3s49.18-56.14,49.78-58.93-22.49-25-22.49-25Z" transform="translate(-1017.46 -213)"/>
    <polygon class="clse-4" points="234.48 420.49 284.23 357.94 292.36 365.12 241.29 426.62 234.48 420.49"/>
    <polygon class="clse-4" points="232.32 399.33 235.76 388.44 253.8 396.19 249.31 405.34 232.32 399.33"/>
    <path class="clse-7" d="M1234.57,413.75s0,44.61,19.94,79.58,37.17,53.6,37.17,53.6l-42.17,39.76s-48.28-32.11-60.22-88.12-.22-86.65-.22-86.65Z" transform="translate(-1017.46 -213)"/>
    <path class="clse-8" d="M1164.11,546.84c.1.66.22,1.38.37,2.16.88,4.56,3.14,11.72.31,13.13-7.87,3.92-20,8.45-37.22,10.8-21,2.89-48.76-1-59.12-3.11-3.25-.68-20-5.4-20-10.28,0-6-.23-12.14.08-18.32,4.16-84.35,34.08-139.61,34.08-139.61l4.62-.53,27.92,11.48,29.69-10.76S1161.08,525.87,1164.11,546.84Z" transform="translate(-1017.46 -213)"/>
    <path class="clse-7" d="M1085.28,413.61s38.88,4.58,39.64-1.2c1.73-13.2,11.62-82.52,11.62-82.52l-5.89-9.31L1114.27,322s-11.45,1.76-20.27,25.93S1085.28,413.61,1085.28,413.61Z" transform="translate(-1017.46 -213)"/>
    <path class="clse-2" d="M1131.79,312.82l-.33,13.29s-2.49,3.76-10.28,4.2c-5.81.32-7.56-2.7-7.56-2.7l1.69-11.59,14.12-2.74Z" transform="translate(-1017.46 -213)"/>
    <path d="M1129.43,313.28a4.8,4.8,0,0,1-.42,1.27c-3.14,6.57-11.31,7.8-14.66,8l1-6.54Z" transform="translate(-1017.46 -213)"/>
    <path class="clse-2" d="M1113.11,285.65s-7.4,16.49-4.88,25.81,11,8,16.09,6.2a16.83,16.83,0,0,0,7.48-4.84,7.15,7.15,0,0,0,7.93-2.72c3.21-4.37,1.31-9.45-1.39-10.64s-5.93.74-5.93.74l2.57-4.79S1124.61,270.86,1113.11,285.65Z" transform="translate(-1017.46 -213)"/>
    <path d="M1130.79,302.93s-6-.48-10.93-8.41-4-12-4-12l-4.95,8.8s-1.08-6.3,1.18-9.91,12.81-4.56,12.81-4.56l7.52,5.61,4.13,12.59Z" transform="translate(-1017.46 -213)"/>
    <path class="clse-3" d="M1112.47,420.36s16.58-88.22,16.81-89c.47-1.65,2.31-10.52,2.31-10.52s18,5.24,24.05,13.16c4.39,5.75-2.41,85.26-4.5,86.74S1112.47,420.36,1112.47,420.36Z" transform="translate(-1017.46 -213)"/>
    <path class="clse-4" d="M1128.5,406.81s12.13,10.51,28.48,10.91,32.92-14.64,32.92-14.64l10.64-72.95s-12.59,2.73-24.22,17.18c-13,16.13-15.74,24.44-15.74,24.44Z" transform="translate(-1017.46 -213)"/>
    <path class="clse-7" d="M1170.37,412.82s-17.91,39.62-21.3,100.56-2.49,83.66-2.49,83.66l57.23-2.76s-1.69-61.24-.22-67.36c2.35-9.71-13.14-108.35-13.14-108.35Z" transform="translate(-1017.46 -213)"/>
    <path class="clse-4" d="M1170.59,398.7l-1.7,16.27s13.31,5,35.64,5,36.25-3.81,36.25-3.81l5.91-82.74A75.05,75.05,0,0,0,1218,328c-13.52.18-17.45,2.12-17.45,2.12Z" transform="translate(-1017.46 -213)"/>
    <path class="clse-3" d="M1089.3,419s4.88-19.8,12.63-51.9c6.41-26.49,12.34-45.13,12.34-45.13s-14.25,2.61-18,4.15-11.18,25.33-13.54,47.45-6.51,43.47-5.38,44.45S1089.3,419,1089.3,419Z" transform="translate(-1017.46 -213)"/>
    <path class="clse-9" d="M1170.5,413.5l-1.16-.17s1.46-10.43,2.49-17.34c2.12-14.11,4.72-29.14,4.75-29.29a.57.57,0,0,1,.68-.48.58.58,0,0,1,.47.68c0,.15-2.63,15.17-4.74,29.26C1172,403.06,1170.5,413.5,1170.5,413.5Z" transform="translate(-1017.46 -213)"/>
    <path class="clse-6" d="M1226.25,317.91l-.3,13.53s-2.52,3.83-10.45,4.3c-5.9.34-7.94-1-7.94-1l1-6.84,1-6.66,14.36-2.82Z" transform="translate(-1017.46 -213)"/>
    <path d="M1223.85,318.39a4.62,4.62,0,0,1-.43,1.29c-3.17,6.69-11.48,8-14.89,8.19l1-6.66Z" transform="translate(-1017.46 -213)"/>
    <path class="clse-6" d="M1207.16,290.32s-7.47,16.8-4.89,26.28,11.23,8,16.4,6.26a17.17,17.17,0,0,0,7.59-4.94,7.28,7.28,0,0,0,8.06-2.8c3.25-4.46,1.3-9.62-1.44-10.82s-6,.77-6,.77l2.6-4.88S1218.82,275.24,1207.16,290.32Z" transform="translate(-1017.46 -213)"/>
    <path class="clse-1" d="M1282.71,556a.58.58,0,0,1-.42-.18c-.22-.23-21.76-23.1-40.2-59.12s-18.83-76.32-18.83-76.73a.59.59,0,0,1,1.17,0c0,.4.38,40.38,18.71,76.19s39.78,58.62,40,58.85a.6.6,0,0,1,0,.83A.64.64,0,0,1,1282.71,556Z" transform="translate(-1017.46 -213)"/>
    <path class="clse-1" d="M1192.85,595.29a.59.59,0,0,1-.59-.57c0-.55-1.5-55.36,2.94-81.61a.58.58,0,0,1,.67-.48.59.59,0,0,1,.48.68c-4.42,26.14-2.93,80.83-2.92,81.38a.58.58,0,0,1-.57.6Z" transform="translate(-1017.46 -213)"/>
    <path class="clse-5" d="M1235.11,306.53a7.65,7.65,0,0,0-8.26-1.46l-3,3.79s-7.16-6.61-8.84-12.4c-1.41-4.87-2.27-7.23-2.27-7.23l-7.49,6s-2.4-7,2.53-11.11c.38-.3.75-.59,1.11-.83,5.18,1.54,10.64,3.46,16.26,5.73,3.44,1.39,6.77,2.84,9.92,4.32C1236.9,299.72,1235.11,306.53,1235.11,306.53Z" transform="translate(-1017.46 -213)"/>
    <path class="clse-2" d="M1114.2,390.68S1095,380.32,1087,380.81s-18.35,16.32-18.16,17.92,2.82.4,2.82.4a9.06,9.06,0,0,0,.74,3.85c.81,1.45,4.11-.35,4.11-.35s-.86,3.51,1.88,3.87,8-.14,8.51-2.22a3.22,3.22,0,0,0-.6-3.07l1.07,1s.82,3.62,6.66,6.11,15.56-2.92,15.56-2.92Z" transform="translate(-1017.46 -213)"/>
    <path d="M1072.75,399a.59.59,0,0,1-.36-.13.58.58,0,0,1-.1-.82l6.42-8.17a.6.6,0,0,1,.83-.09.58.58,0,0,1,.09.82l-6.42,8.16A.59.59,0,0,1,1072.75,399Z" transform="translate(-1017.46 -213)"/>
    <path d="M1076.54,403.21a.58.58,0,0,1-.37-.13.59.59,0,0,1-.09-.82l7.48-9.37a.6.6,0,0,1,.83-.09.59.59,0,0,1,.09.82L1077,403A.58.58,0,0,1,1076.54,403.21Z" transform="translate(-1017.46 -213)"/>
    <path class="clse-3" d="M1149.47,329s27.46,17.72,26.84,52.94-66,33.07-68.41,32.45l-2.42-.62s-6.26-31.26-4.76-32.43,36.61-6.36,36.61-6.36Z" transform="translate(-1017.46 -213)"/>
    <g>
      <path class="clse-6" d="M1139.81,368.7s19.07,3.81,14.71,8-15.26,1.45-15.26,1.45Z" transform="translate(-1017.46 -213)"/>
      <path class="clse-6" d="M1130.47,368.59S1132,357.51,1137,361s7,23.66,1,25.68S1130.47,368.59,1130.47,368.59Z" transform="translate(-1017.46 -213)"/>
      <path class="clse-6" d="M1121.28,369.6s1.51-11.08,6.54-7.56,7,23.67,1,25.69S1121.28,369.6,1121.28,369.6Z" transform="translate(-1017.46 -213)"/>
      <path class="clse-6" d="M1112.68,373.1s-.35-9.89,4.57-7.57,9.72,19.57,4.75,22.24S1112.68,373.1,1112.68,373.1Z" transform="translate(-1017.46 -213)"/>
    </g>
    <path d="M1123.64,383a.59.59,0,0,1-.57-.48l-2.37-12.84a.58.58,0,0,1,1.15-.21l2.37,12.84a.59.59,0,0,1-.47.68Z" transform="translate(-1017.46 -213)"/>
    <path d="M1132.56,379.51a.59.59,0,0,1-.59-.52l-1.26-12.13a.58.58,0,0,1,.52-.64.57.57,0,0,1,.64.52l1.27,12.13a.58.58,0,0,1-.52.64Z" transform="translate(-1017.46 -213)"/>
    <path class="clse-9" d="M1229.93,317.19a2.37,2.37,0,1,0-2.37,2.36A2.37,2.37,0,0,0,1229.93,317.19Z" transform="translate(-1017.46 -213)"/>
    <path class="clse-5" d="M1208.89,283.28s8.81-5.48,21,0,10.14,24.44,10.14,24.44l-11.74-10.23-14.72-11.87Z" transform="translate(-1017.46 -213)"/>
    <path d="M1115,311.29a4,4,0,0,0,3.31-1.52.48.48,0,0,0-.09-.69.5.5,0,0,0-.7.09,3,3,0,0,1-3.51.87.51.51,0,0,0-.65.26.5.5,0,0,0,.27.66A4.33,4.33,0,0,0,1115,311.29Z" transform="translate(-1017.46 -213)"/>
    <circle cx="101.66" cy="84.08" r="0.81"/>
    <circle cx="93.73" cy="83.62" r="0.81"/>
    <path class="clse-10" d="M1113.79,300.82s-2.9-1.16-2.85.27a3,3,0,0,0,1,2.2" transform="translate(-1017.46 -213)"/>
    <path class="clse-10" d="M1138.11,304.5s-4.45-.73-4.72,3.43" transform="translate(-1017.46 -213)"/>
    <path d="M1210,315.49a4,4,0,0,0,3.31-1.52.5.5,0,0,0-.79-.6,3,3,0,0,1-3.51.87.5.5,0,0,0-.39.92A4,4,0,0,0,1210,315.49Z" transform="translate(-1017.46 -213)"/>
    <circle cx="196.62" cy="88.29" r="0.81"/>
    <circle cx="188.7" cy="87.82" r="0.81"/>
    <path class="clse-10" d="M1208.44,304.68s-4.11-2.17-3.52,1a2.55,2.55,0,0,0,1.57,1.86" transform="translate(-1017.46 -213)"/>
    <path class="clse-10" d="M1233.08,308.71s-4.45-.74-4.72,3.43" transform="translate(-1017.46 -213)"/>
    <path class="clse-6" d="M1229.79,416.29s2.23,17.18,0,27.82-5.45,13.74-7.07,13.63-1.69-7.09-1.69-7.09-2.41,9.93-6,9.62-2.41-9.28-2.41-9.28-3.18,6.74-5.62,4.74,1.06-18.26,1.06-18.26-4.36,7.41-6.26,5.9-.22-13.65,2.51-17.53,8.18-8,8.18-8Z" transform="translate(-1017.46 -213)"/>
    <path class="clse-4" d="M1231.22,432.22s37.59-28.81,27-81.36c-7.8-38.57-48.32-10.42-48.32-10.42s7.67,22.59,7.53,37.17c-.13,14.37-7,40.61-7,40.61Z" transform="translate(-1017.46 -213)"/>
    <path class="clse-4" d="M1203.21,535.05a.59.59,0,0,1-.53-.35c-16.72-37.21-13.1-79.22-12.58-84.3l-13.22-3.47a.58.58,0,1,1,.3-1.13l13.7,3.59a.6.6,0,0,1,.44.64c-.06.44-5.17,45,12.43,84.19a.59.59,0,0,1-.3.78A.64.64,0,0,1,1203.21,535.05Z" transform="translate(-1017.46 -213)"/>
    <path class="clse-9" d="M1213.9,336.5a20.57,20.57,0,0,1-8.39-1.91.59.59,0,0,1-.26-.79.57.57,0,0,1,.78-.26c.06,0,5.34,2.63,10.76,1.5,7.53-1.58,11.06-5.57,11.09-5.61a.59.59,0,0,1,.89.77c-.15.17-3.79,4.32-11.74,6A15.52,15.52,0,0,1,1213.9,336.5Z" transform="translate(-1017.46 -213)"/>
  </g>
  <circle class="clse-6" cx="43.99" cy="15.55" r="15.55"/>
  <line class="clse-11" x1="3.64" y1="420.49" x2="82.42" y2="420.49"/>
  <polygon class="clse-7" points="44.15 404.5 57.35 417.69 63.29 417.69 47.12 401.53 44.15 404.5"/>
  <polygon class="clse-7" points="53.4 404.5 66.59 417.69 72.53 417.69 56.37 401.53 53.4 404.5"/>
  <polygon class="clse-7" points="65.61 401.53 62.64 404.5 75.84 417.69 81.78 417.69 65.61 401.53"/>
</svg>
