<svg id="Layer_1" data-name="Layer 1" xmlns="http://www.w3.org/2000/svg" width="245.57" height="630.07" viewBox="0 0 245.57 630.07">
  <defs>
    <style>
      .clsc-1 {
        fill: #c7d8d1;
      }

      .clsc-2 {
        fill: #50bfa5;
      }

      .clsc-3 {
        fill: #f9e07d;
      }
    </style>
  </defs>
  <path class="clsc-1" d="M0,620.25c22.52-12.54,114.17-61.47,114.17-27.3,0,38.95-31.81,71.07-31.81,71.07s57.45-28.52,65.11,0c8.35,31.11-84.33,115.9-84.33,115.9s61.43-45,46,2.74C96.15,822.68,23.35,882.42,0,900.81Z" transform="translate(0 -492.27)"/>
  <path class="clsc-2" d="M0,501.92c3.32-6.26,9.22-11.51,19.67-9,26.77,6.39,1.28,88,1.28,88s54.21-50.08,54.21-11.77S35,631.15,32.3,633.84s56.49-28.69,67.51,15.46c12.06,48.28-79,88.32-99.81,96.8Z" transform="translate(0 -492.27)"/>
  <circle class="clsc-3" cx="117.25" cy="599.59" r="30.48"/>
  <circle class="clsc-2" cx="224.82" cy="567.29" r="20.74"/>
</svg>
