<svg id="Layer_1" data-name="Layer 1" xmlns="http://www.w3.org/2000/svg" width="271.2" height="241.04" viewBox="0 0 271.2 241.04">
  <defs>
    <style>
      .clsg-1 {
        fill: #6b9493;
      }

      .clsg-2, .clsg-6, .clsg-7 {
        fill: none;
      }

      .clsg-2 {
        stroke: #f9e07d;
        stroke-miterlimit: 10;
        stroke-width: 0.9px;
      }

      .clsg-3 {
        fill: #d78752;
      }

      .clsg-4 {
        fill: #ad4d40;
      }

      .clsg-5 {
        fill: #254c58;
      }

      .clsg-6, .clsg-7 {
        stroke: #000;
        stroke-linecap: round;
        stroke-linejoin: round;
      }

      .clsg-6 {
        stroke-width: 1.21px;
      }

      .clsg-7 {
        stroke-width: 1.12px;
      }
    </style>
  </defs>
  <path class="clsg-1" d="M1274.59,478.71H1160.44c-1.76-14.76-2.83-23.61-2.83-23.61l24.24-4.71,81-15.63s5.69,18.21,11.75,43.95" transform="translate(-1009 -237.67)"/>
  <g>
    <path class="clsg-2" d="M1210.64,289.38a3.58,3.58,0,1,1,1.44,7" transform="translate(-1009 -237.67)"/>
    <path class="clsg-3" d="M1214.31,269a22.69,22.69,0,0,1-22.68,22.68c-12.53,0-23.81-10.21-22.68-22.68,1.19-13.13,10.15-22.68,22.68-22.68A22.68,22.68,0,0,1,1214.31,269Z" transform="translate(-1009 -237.67)"/>
    <path class="clsg-3" d="M1068.86,435.4s55.08,8.69,83.73-16.1c29.92-25.9,35-58,35-58l-35-3.15s-25.63,14.14-36.65,22c-10.33,7.4-59.8,32.86-59.8,32.86Z" transform="translate(-1009 -237.67)"/>
    <path class="clsg-1" d="M1171.38,324.38s-12.14,10.72-20.21,19.13c-5,5.16-22.89,14.91-22.89,14.91L1155,415l14.43-2.84Z" transform="translate(-1009 -237.67)"/>
    <path class="clsg-4" d="M1187.21,445.17l7.25,12.37h-35.1c.88-11.54,1.65-18.6,1.65-18.6l23.44,1.56Z" transform="translate(-1009 -237.67)"/>
    <path class="clsg-1" d="M1159.68,453.44s-13.43-104.4,8.26-125.93c26.26-26.07,59.45-11.67,59.45-11.67L1241,439.63s-42.52,22.83-81.33,13.81" transform="translate(-1009 -237.67)"/>
    <path class="clsg-3" d="M1205.36,294.09l3.26,19.15s-2.51,6.09-13.56,8.91c-8.23,2.1-11.6-1.74-11.6-1.74l-.83-17.1,19.46-7.89Z" transform="translate(-1009 -237.67)"/>
    <path d="M1202.09,295.42a6.34,6.34,0,0,1-.24,1.94c-2.65,10.29-14,14.35-18.76,15.6l-.46-9.65Z" transform="translate(-1009 -237.67)"/>
    <path class="clsg-3" d="M1170.92,260.4s-6,25.72.28,38.38,18,8.29,24.81,4.35,9.35-9,9.35-9A10.47,10.47,0,0,0,1216,288c3.37-7.17-.79-13.92-5-14.86s-8.29,2.73-8.29,2.73l2.33-7.59s-21.78-32.28-34.11-7.84" transform="translate(-1009 -237.67)"/>
    <path class="clsg-3" d="M1171.83,434.7s31.14-1.12,40.76-9.72,9.85-31.64,9.85-31.64l52.81,1.39s4.41,45-31.63,62.5c-20.47,9.9-72,3.78-72,3.78Z" transform="translate(-1009 -237.67)"/>
    <path class="clsg-1" d="M1227.39,315.84s28.38,7,40.71,32.48,12.1,60.58,12.1,60.58l-61.48-2.28,5.25-53.78a118.4,118.4,0,0,1,2-23.54Z" transform="translate(-1009 -237.67)"/>
    <path d="M1187.41,270.36a.82.82,0,0,1-.63-.29,3.87,3.87,0,0,0-2.67-1.52,4.69,4.69,0,0,0-3,1.18.83.83,0,0,1-1.14-1.22,6.41,6.41,0,0,1,4.26-1.62A5.42,5.42,0,0,1,1188,269a.83.83,0,0,1-.09,1.17.86.86,0,0,1-.54.2" transform="translate(-1009 -237.67)"/>
    <path d="M1169.45,271.55l-.19,0a.85.85,0,0,1-.62-1,2.36,2.36,0,0,1,1.25-1.63c1.53-.77,3.74.14,4,.25a.83.83,0,0,1,.43,1.09.84.84,0,0,1-1.09.44,4,4,0,0,0-2.58-.3.68.68,0,0,0-.38.53.83.83,0,0,1-.81.64" transform="translate(-1009 -237.67)"/>
    <path class="clsg-5" d="M1189.81,323.6c-6.7,0-8.92-3.45-9-3.63a.83.83,0,0,1,.27-1.14.84.84,0,0,1,1.14.26c.13.2,3,4.39,12.7,2.25,9.95-2.2,13-8.39,13-8.45a.82.82,0,0,1,1.1-.4.81.81,0,0,1,.4,1.09c-.13.29-3.33,7-14.13,9.38a25,25,0,0,1-5.43.64" transform="translate(-1009 -237.67)"/>
    <path class="clsg-5" d="M1219.28,405.56a.83.83,0,0,1-.83-.75c0-.21-2.1-21.5-.19-37.33a.83.83,0,1,1,1.65.19c-1.89,15.65.17,36.77.19,37a.82.82,0,0,1-.74.9h-.08" transform="translate(-1009 -237.67)"/>
    <path class="clsg-5" d="M1218.12,387a.85.85,0,0,1-.63-.29c-1.23-1.41-11.9-13.93-8.88-19.75.59-1.14,1.34-1.31,1.87-1.24,3.25.39,7,14.29,8.45,20.25a.84.84,0,0,1-.43.94.85.85,0,0,1-.38.09m-7.82-19.63s-.09.11-.22.36c-1.68,3.24,2.8,10.35,6.28,14.94-2.26-8.3-4.85-15-6.06-15.3" transform="translate(-1009 -237.67)"/>
    <path class="clsg-5" d="M1155,415.81a.84.84,0,0,1-.82-.7c-.3-1.84-7.34-45.33,2.85-64a.84.84,0,0,1,1.13-.33.83.83,0,0,1,.33,1.13c-9.92,18.2-2.75,62.51-2.67,63a.82.82,0,0,1-.68,1l-.14,0" transform="translate(-1009 -237.67)"/>
    <path class="clsg-6" d="M1206.2,285.75s.11-7.48,5.26-7.12" transform="translate(-1009 -237.67)"/>
    <path class="clsg-3" d="M1071.17,434.77s-21.21,9.43-35.74,10.58-19.73-1.74-20.2-3.87,8.46-4.88,8.46-4.88-13.68.71-14.64-4,11-6.65,11-6.65-9.88-1.51-8.25-5.39,23.86-5.63,23.86-5.63-11.18-2.77-10-5.79,17.44-5.49,23.47-3.47,13.42,7.43,13.42,7.43Z" transform="translate(-1009 -237.67)"/>
    <path d="M1055.57,423.9a.69.69,0,0,0,.06-.68.7.7,0,0,0-.93-.36c-8.8,3.9-16.76-7.74-16.84-7.86a.72.72,0,0,0-1-.19.71.71,0,0,0-.19,1c.35.52,8.7,12.74,18.59,8.36a.79.79,0,0,0,.29-.25" transform="translate(-1009 -237.67)"/>
    <path d="M1178.38,297.12a5.89,5.89,0,0,0,4.84-2.21.74.74,0,0,0-.14-1,.73.73,0,0,0-1,.14,4.31,4.31,0,0,1-5.12,1.27.73.73,0,0,0-.57,1.34A6.1,6.1,0,0,0,1178.38,297.12Z" transform="translate(-1009 -237.67)"/>
    <circle cx="175.42" cy="38.71" r="1.18"/>
    <circle cx="163.85" cy="38.04" r="1.18"/>
    <path class="clsg-7" d="M1176.64,281.84s-4.23-1.7-4.16.39a4.49,4.49,0,0,0,1.52,3.22" transform="translate(-1009 -237.67)"/>
    <path d="M1159,246.34c-.18-2.84,2-5.28,4.59-6.46s6.09-2.22,8-.34c3.27,3.17,6.85,9.13,12.82,4.36,4.74-3.79,10.59-7.21,14.32-6,3.58,1.2,3.25,6.73,4.78,6,2.38-1.19,7.24,1.92,8.35,3.58,2.39,3.58,1,11.13-5.48,10.94s-4.87,6.31-7.65,8.16c-3.58,2.39-11.55-.22-12.94-4.29s-7.35,1.9-12.13.71c-7-1.75-4.77-7.16-9.55-8.36C1160.44,253.71,1159.4,252.26,1159,246.34Z" transform="translate(-1009 -237.67)"/>
    <circle cx="196.36" cy="23.54" r="0.6"/>
    <circle cx="199.94" cy="23.54" r="0.6"/>
    <circle cx="192.78" cy="29.51" r="0.6"/>
    <circle cx="195.16" cy="27.12" r="0.6"/>
    <circle cx="202.32" cy="28.31" r="0.6"/>
    <circle cx="201.13" cy="33.09" r="0.6"/>
    <circle cx="198.74" cy="27.12" r="0.6"/>
    <circle cx="196.36" cy="35.47" r="0.6"/>
    <circle cx="197.55" cy="30.7" r="0.6"/>
    <circle cx="192.78" cy="36.67" r="0.6"/>
    <path class="clsg-2" d="M1210.16,289.48a3.58,3.58,0,0,0,2.16,6.83" transform="translate(-1009 -237.67)"/>
    <path class="clsg-2" d="M1210.16,289.48a3.58,3.58,0,0,0,2.16,6.83" transform="translate(-1009 -237.67)"/>
  </g>
  <g>
    <path class="clsg-3" d="M1182,436.11s-25.64-6.47-36.2-1.91-15.69,25.4-14.64,27.48,4.43,1.85,4.43,1.85-.42,3.93,1.39,5.5,5.31-.25,5.31-.25,4.43,4.31,8.3,3.46,6.92-3.26,6.54-6.29-2.31-3.86-2.31-3.86l1.94.83s2.87,4.48,12,5,19.58-11.55,19.58-11.55Z" transform="translate(-1009 -237.67)"/>
    <path d="M1135.54,464.36a.82.82,0,0,1-.78-1.09l5.81-17.56a.83.83,0,0,1,1.58.52l-5.82,17.56a.83.83,0,0,1-.79.57" transform="translate(-1009 -237.67)"/>
    <path d="M1142.24,469.61l-.25,0a.83.83,0,0,1-.54-1.05l6-18.91a.83.83,0,1,1,1.58.5L1143,469a.85.85,0,0,1-.8.57" transform="translate(-1009 -237.67)"/>
    <path d="M1154.77,462.92a.81.81,0,0,1-.45-.13.83.83,0,0,1-.25-1.15l2.93-4.53a.84.84,0,0,1,1.15-.24.82.82,0,0,1,.25,1.14l-2.93,4.53a.83.83,0,0,1-.7.38" transform="translate(-1009 -237.67)"/>
  </g>
</svg>
