<svg id="Layer_1" data-name="Layer 1" xmlns="http://www.w3.org/2000/svg" xmlns:xlink="http://www.w3.org/1999/xlink" width="229.1" height="224.19" viewBox="0 0 229.1 224.19">
  <defs>
    <style>
      .cls-1, .cls-11, .cls-7, .cls-8, .cls-9 {
        fill: none;
      }

      .cls-2 {
        fill: #bcd1d6;
      }

      .cls-3 {
        clip-path: url(#clip-path);
      }

      .cls-4 {
        fill: #254c58;
      }

      .cls-5 {
        fill: #d78752;
      }

      .cls-6 {
        fill: #f5cbf7;
      }

      .cls-7, .cls-8, .cls-9 {
        stroke: #000;
        stroke-linecap: round;
        stroke-linejoin: round;
      }

      .cls-7 {
        stroke-width: 0.86px;
      }

      .cls-8 {
        stroke-width: 1.11px;
      }

      .cls-9 {
        stroke-width: 1.1px;
      }

      .cls-10 {
        fill: #fff;
      }

      .cls-11 {
        stroke: #fff;
        stroke-miterlimit: 10;
        stroke-width: 1.42px;
      }
    </style>
    <clipPath id="clip-path" transform="translate(-533.96 -1584.82)">
      <circle class="cls-1" cx="660.68" cy="1699.21" r="102.38"/>
    </clipPath>
  </defs>
  <g>
    <circle class="cls-2" cx="126.72" cy="114.39" r="102.38"/>
    <g class="cls-3">
      <polygon class="cls-4" points="87.78 218.74 90.95 122.2 183.68 133.27 182.95 224.19 87.78 218.74"/>
    </g>
    <path class="cls-5" d="M708.61,1682.16s12.57,5.11,19.73-2.74c7-7.65,3.22-17,3.22-17a17.35,17.35,0,0,0,8.42-12.26c1.17-8.48-3.55-15.38-3.55-15.38s3.77-11.35-1.81-18c-5.38-6.45-10.15-6.36-10.15-6.36s1.7-8.46-7.37-14c-6.15-3.8-13.11-.8-13.11-.8s-2.54-9-17.45-10.58c-13.59-1.41-17,5.74-17,5.74s-10.26-4.84-17,0a13.7,13.7,0,0,0-5.76,12.18s-6.94,3.21-8.14,10.52,0,10.87,0,10.87-4.77,6.83-4.49,13.92,3.29,10.56,3.29,10.56-4.77,7.24-3.29,13.28,4.49,7.55,4.49,7.55a18.74,18.74,0,0,0,11.54,15.68c8.31,3.46,58.41-3.14,58.41-3.14" transform="translate(-533.96 -1584.82)"/>
    <path class="cls-6" d="M677,1642l.6,15.68s-2.65,4.61-11.79,5.71c-6.81.81-9.27-.64-9.27-.64l.65-8,.64-7.78,16.42-4.28Z" transform="translate(-533.96 -1584.82)"/>
    <path d="M674.21,1642.73a5.43,5.43,0,0,1-.4,1.53c-3.21,8-12.73,10-16.66,10.53l.64-7.78Z" transform="translate(-533.96 -1584.82)"/>
    <path class="cls-6" d="M652.93,1611.42s-7.47,20-3.81,30.76,13.55,8.53,19.41,6.09A19.84,19.84,0,0,0,677,1642a8.43,8.43,0,0,0,9.13-3.8c3.45-5.39.83-11.23-2.43-12.42s-7.31.2-7.31.2l3-4.72s-14-28.14-26.48-9.86" transform="translate(-533.96 -1584.82)"/>
    <path d="M652.77,1623.55a.91.91,0,1,1-.91-.91.91.91,0,0,1,.91.91" transform="translate(-533.96 -1584.82)"/>
    <path d="M662.14,1624a.91.91,0,1,1-.91-.91.91.91,0,0,1,.91.91" transform="translate(-533.96 -1584.82)"/>
    <path class="cls-7" d="M656,1630.37s-3-.15-2.89,1.45,2.4,2.59,2.4,2.59" transform="translate(-533.96 -1584.82)"/>
    <path class="cls-7" d="M655.13,1640.9s1.51,2.92,4.7.9" transform="translate(-533.96 -1584.82)"/>
    <path class="cls-7" d="M678.91,1635.27s-.21-5.15,2.63-4.9" transform="translate(-533.96 -1584.82)"/>
    <path class="cls-8" d="M649.89,1620.3a4.55,4.55,0,0,1,4.7.12" transform="translate(-533.96 -1584.82)"/>
    <path class="cls-9" d="M665.37,1622.15a4.59,4.59,0,0,0-4.55-1.18" transform="translate(-533.96 -1584.82)"/>
    <circle class="cls-5" cx="123.99" cy="20.66" r="9.2"/>
    <circle class="cls-5" cx="140.98" cy="27.03" r="10.62"/>
    <path class="cls-6" d="M585.34,1678.5s-4.2-18.77-9.36-19.15-1.12,15.11-1.12,15.11l-14-5.35s-15.91-4.43-19.07-3,2,6.54,2,6.54-11.32-3.4-9.73,2.13,9.34,8.69,9.34,8.69-11.08-3.92-8.58,2.55c1.36,3.5,25.71,18.24,42.11,17.72s9.86-13.18,9.86-13.18Z" transform="translate(-533.96 -1584.82)"/>
    <path d="M579.17,1694c-.26,0-5.07-.45-7.31-4.4-1.86-3.27-1.34-7.87,1.53-13.68a.76.76,0,0,1,1.37.68c-2.63,5.33-3.16,9.45-1.57,12.25,1.84,3.25,6,3.62,6,3.62a.77.77,0,0,1-.06,1.53Z" transform="translate(-533.96 -1584.82)"/>
    <path class="cls-4" d="M589.37,1686.15l-21.26,18.59s9.16,46,30.56,58.66,39.58.91,39.58.91l-21.66-56.4Z" transform="translate(-533.96 -1584.82)"/>
    <path class="cls-4" d="M602.88,1706.31s23.23-44.84,58.36-47.4,62.08,10.31,70.79,52.95c7.56,37-16.74,62.08-16.74,62.08l-37.84-33.84Z" transform="translate(-533.96 -1584.82)"/>
    <path class="cls-6" d="M638.25,1710.5s-1.69-13.59-3.85-18.66-8.29-19.82-10.81-17.49,2.16,15.3,0,16-21.61-22-24.5-19.81,9.73,21.28,9.73,21.28-9,17.93-7.56,22.82,15.33,13.09,15.33,13.09l16.73-3.87Z" transform="translate(-533.96 -1584.82)"/>
    <path class="cls-4" d="M677.45,1740.81l-32.16-24.87-7-5.44-21.66,17.25a163.36,163.36,0,0,0,12,23.12c8.25,13.18,20.33,27.88,34.86,32.09,28,8.1,49.09-13.48,49.09-13.48Z" transform="translate(-533.96 -1584.82)"/>
    <path class="cls-10" d="M645,1690.2a.77.77,0,0,1-.31-1.47c.29-.12,28.78-12.53,34.29-27a.75.75,0,0,1,1-.44.76.76,0,0,1,.45,1c-5.74,15.1-33.92,27.37-35.11,27.89A.8.8,0,0,1,645,1690.2Z" transform="translate(-533.96 -1584.82)"/>
    <path class="cls-10" d="M656.39,1684.41a.77.77,0,0,1-.76-.8l.83-20a.84.84,0,0,1,.8-.73.78.78,0,0,1,.73.8l-.83,20A.77.77,0,0,1,656.39,1684.41Z" transform="translate(-533.96 -1584.82)"/>
    <path d="M611.7,1697.28a.78.78,0,0,1-.65-.36l-2.88-4.68a.76.76,0,1,1,1.3-.8l2.88,4.68a.76.76,0,0,1-.25,1.05A.8.8,0,0,1,611.7,1697.28Z" transform="translate(-533.96 -1584.82)"/>
    <path class="cls-11" d="M638.13,1710.24s32.56,34.68,38.36,23.16c3.45-6.88,8.36-20.33,8.36-20.33" transform="translate(-533.96 -1584.82)"/>
    <path class="cls-11" d="M627.52,1750.58s24.77,46.72,67.24,31.85" transform="translate(-533.96 -1584.82)"/>
  </g>
</svg>
