<svg xmlns="http://www.w3.org/2000/svg" viewBox="0 0 271.2 234.68"><defs><style>.clsaz-1{fill:#6b9493;}.clsaz-2,.clsaz-6,.clsaz-7{fill:none;}.clsaz-2{stroke:#f9e07d;stroke-miterlimit:10;stroke-width:0.9px;}.clsaz-3{fill:#d78752;}.clsaz-4{fill:#ad4d40;}.clsaz-5{fill:#254c58;}.clsaz-6,.clsaz-7{stroke:#000;stroke-linecap:round;stroke-linejoin:round;}.clsaz-6{stroke-width:1.21px;}.clsaz-7{stroke-width:1.12px;}</style></defs><g id="Layer_2" data-name="Layer 2"><g id="Layer_1-2" data-name="Layer 1"><path class="clsaz-1" d="M265.59,227.67H151.44c-1.76-10.27-2.83-16.43-2.83-16.43L172.85,208l81-10.87s5.69,12.67,11.75,30.58"/><path class="clsaz-2" d="M201.64,51.7a3.58,3.58,0,0,1,1.44,7"/><path class="clsaz-3" d="M205.31,31.3A22.69,22.69,0,0,1,182.63,54C170.1,54,158.82,43.77,160,31.3c1.19-13.13,10.15-22.68,22.68-22.68A22.68,22.68,0,0,1,205.31,31.3Z"/><path class="clsaz-3" d="M59.86,197.73s55.08,8.69,83.73-16.1c29.92-25.9,35-58,35-58l-35-3.14s-25.63,14.14-36.65,22c-10.33,7.4-59.8,32.86-59.8,32.86Z"/><path class="clsaz-1" d="M162.38,86.71s-12.14,10.72-20.21,19.13c-5,5.16-22.89,14.91-22.89,14.91L146,177.3l14.43-2.83Z"/><path class="clsaz-4" d="M178.21,207.5l7.25,12.37h-35.1c.88-11.55,1.65-18.6,1.65-18.6l23.44,1.56Z"/><path class="clsaz-1" d="M150.68,215.77s-13.43-104.4,8.26-125.93c26.26-26.07,59.45-11.67,59.45-11.67L232,202s-42.52,22.83-81.33,13.81"/><path class="clsaz-3" d="M196.36,56.42l3.26,19.15s-2.51,6.09-13.56,8.91c-8.23,2.09-11.6-1.74-11.6-1.74l-.83-17.1,19.46-7.89Z"/><path d="M193.09,57.75a6.34,6.34,0,0,1-.24,1.94C190.2,70,178.84,74,174.09,75.29l-.46-9.65Z"/><path class="clsaz-3" d="M161.92,22.73s-5.95,25.72.28,38.38,18,8.29,24.81,4.35,9.35-9,9.35-9A10.45,10.45,0,0,0,207,50.29c3.37-7.18-.79-13.92-5-14.86s-8.29,2.72-8.29,2.72L196,30.57s-21.78-32.28-34.11-7.84"/><path class="clsaz-3" d="M162.83,197s31.14-1.11,40.76-9.71,9.85-31.65,9.85-31.65l52.81,1.4s4.41,45.05-31.63,62.5c-20.47,9.9-72,3.77-72,3.77Z"/><path class="clsaz-1" d="M218.39,78.17s28.38,7,40.71,32.47,12.1,60.59,12.1,60.59L209.72,169,215,115.17a118.4,118.4,0,0,1,2-23.54Z"/><path d="M178.41,32.69a.82.82,0,0,1-.63-.29,3.83,3.83,0,0,0-2.67-1.52,4.76,4.76,0,0,0-3,1.17.83.83,0,1,1-1.14-1.21,6.41,6.41,0,0,1,4.26-1.62,5.38,5.38,0,0,1,3.85,2.1.83.83,0,0,1-.09,1.17.86.86,0,0,1-.54.2"/><path d="M160.45,33.88l-.19,0a.85.85,0,0,1-.62-1,2.38,2.38,0,0,1,1.25-1.63c1.53-.76,3.74.15,4,.26a.83.83,0,0,1,.43,1.09.84.84,0,0,1-1.09.44,4,4,0,0,0-2.58-.3.68.68,0,0,0-.38.53.83.83,0,0,1-.81.64"/><path class="clsaz-5" d="M180.81,85.93c-6.7,0-8.92-3.45-9-3.63a.83.83,0,0,1,.27-1.14.84.84,0,0,1,1.14.26c.13.2,3,4.39,12.7,2.25,10-2.2,13-8.39,13-8.45a.83.83,0,0,1,1.1-.41.82.82,0,0,1,.4,1.1c-.13.29-3.33,7-14.13,9.38a25.66,25.66,0,0,1-5.43.64"/><path class="clsaz-5" d="M210.28,167.89a.83.83,0,0,1-.83-.75c0-.21-2.1-21.5-.19-37.33a.83.83,0,1,1,1.65.19c-1.89,15.65.17,36.76.19,37a.82.82,0,0,1-.74.91h-.08"/><path class="clsaz-5" d="M209.12,149.28a.85.85,0,0,1-.63-.29c-1.23-1.41-11.9-13.94-8.88-19.75.59-1.15,1.34-1.31,1.87-1.24,3.25.39,7,14.29,8.45,20.25a.84.84,0,0,1-.43.94.85.85,0,0,1-.38.09m-7.82-19.63s-.09.11-.22.35c-1.68,3.24,2.8,10.36,6.28,14.95-2.26-8.31-4.85-15-6.06-15.3"/><path class="clsaz-5" d="M146,178.13a.83.83,0,0,1-.82-.69c-.3-1.84-7.34-45.33,2.85-64a.84.84,0,0,1,1.13-.33.83.83,0,0,1,.33,1.13c-9.92,18.19-2.75,62.51-2.67,63a.82.82,0,0,1-.68,1H146"/><path class="clsaz-6" d="M197.2,48.08s.11-7.49,5.26-7.12"/><path class="clsaz-3" d="M62.17,197.1S41,206.52,26.43,207.68s-19.73-1.74-20.2-3.87,8.46-4.88,8.46-4.88S1,199.64.05,195s11-6.65,11-6.65-9.88-1.51-8.25-5.4,23.86-5.62,23.86-5.62-11.18-2.77-10-5.79S34.14,166,40.17,168s13.42,7.43,13.42,7.43Z"/><path d="M46.57,186.23a.69.69,0,0,0,.06-.68.7.7,0,0,0-.93-.36c-8.8,3.9-16.76-7.74-16.84-7.86a.72.72,0,0,0-1-.19.71.71,0,0,0-.19,1c.35.52,8.7,12.74,18.59,8.35a.68.68,0,0,0,.29-.24"/><path d="M169.38,59.45a5.87,5.87,0,0,0,4.84-2.22.73.73,0,0,0-1.16-.87,4.31,4.31,0,0,1-5.12,1.27.72.72,0,0,0-.57,1.33A6.13,6.13,0,0,0,169.38,59.45Z"/><circle cx="175.42" cy="38.71" r="1.18"/><circle cx="163.85" cy="38.04" r="1.18"/><path class="clsaz-7" d="M167.64,44.16s-4.23-1.69-4.16.4A4.49,4.49,0,0,0,165,47.78"/><path d="M150,8.66c-.18-2.83,2-5.27,4.59-6.45s6.09-2.22,8-.34C165.92,5,169.5,11,175.47,6.23c4.74-3.8,10.59-7.21,14.32-6s3.25,6.73,4.78,6C197,5,201.81,8.14,202.92,9.81c2.39,3.58,1,11.13-5.48,10.94s-4.87,6.31-7.65,8.16c-3.58,2.39-11.55-.22-12.94-4.29s-7.35,1.9-12.13.71c-7-1.75-4.77-7.16-9.55-8.36C151.44,16,150.4,14.58,150,8.66Z"/><circle cx="196.36" cy="23.54" r="0.6"/><circle cx="199.94" cy="23.54" r="0.6"/><circle cx="192.78" cy="29.51" r="0.6"/><circle cx="195.16" cy="27.12" r="0.6"/><circle cx="202.32" cy="28.31" r="0.6"/><circle cx="201.13" cy="33.09" r="0.6"/><circle cx="198.74" cy="27.12" r="0.6"/><circle cx="196.36" cy="35.47" r="0.6"/><circle cx="197.55" cy="30.7" r="0.6"/><circle cx="192.78" cy="36.67" r="0.6"/><path class="clsaz-2" d="M201.16,51.81a3.58,3.58,0,0,0,2.16,6.83"/><path class="clsaz-2" d="M201.16,51.81a3.58,3.58,0,0,0,2.16,6.83"/><path class="clsaz-3" d="M173,198.44s-25.64-6.47-36.2-1.91-15.69,25.4-14.64,27.48,4.43,1.85,4.43,1.85-.42,3.93,1.39,5.5,5.31-.25,5.31-.25,4.43,4.31,8.3,3.46,6.92-3.26,6.54-6.29-2.31-3.86-2.31-3.86l1.94.83s2.87,4.48,12,5,19.58-11.54,19.58-11.54Z"/><path d="M126.54,226.69a1.27,1.27,0,0,1-.26,0,.83.83,0,0,1-.52-1.05L131.57,208a.83.83,0,0,1,1.58.52l-5.82,17.56a.83.83,0,0,1-.79.57"/><path d="M133.24,231.94a.77.77,0,0,1-.25,0,.82.82,0,0,1-.54-1L138.5,212a.83.83,0,1,1,1.58.5l-6,18.92a.85.85,0,0,1-.8.57"/><path d="M145.77,225.25a.81.81,0,0,1-.45-.13.83.83,0,0,1-.25-1.15l2.93-4.53a.84.84,0,0,1,1.15-.25.83.83,0,0,1,.25,1.15l-2.93,4.53a.83.83,0,0,1-.7.38"/></g></g></svg>